<svg xmlns="http://www.w3.org/2000/svg" viewBox="0 0 40.06 49.2"><title>apple</title><g id="圖層_2" data-name="圖層 2"><g id="Layer_1" data-name="Layer 1"><path d="M33.46,26.14a11.15,11.15,0,0,1,5.31-9.37,11.45,11.45,0,0,0-9-4.87c-3.83-.39-7.48,2.25-9.42,2.25S15.41,12,12.24,12A12,12,0,0,0,2.06,18.18C-2.28,25.71,1,36.86,5.18,43c2.06,3,4.53,6.35,7.76,6.23s4.3-2,8.06-2,4.83,2,8.13,2,5.47-3,7.52-6a27.07,27.07,0,0,0,3.41-7A10.87,10.87,0,0,1,33.46,26.14Z"/><path d="M27.27,7.86A10.92,10.92,0,0,0,29.83,0a11,11,0,0,0-7.25,3.72A10.36,10.36,0,0,0,20,11.34,9.17,9.17,0,0,0,27.27,7.86Z"/></g></g></svg>