<?xml version="1.0" encoding="utf-8"?>
<!-- Generator: Adobe Illustrator 23.0.1, SVG Export Plug-In . SVG Version: 6.00 Build 0)  -->
<svg version="1.1" id="_004" xmlns="http://www.w3.org/2000/svg" xmlns:xlink="http://www.w3.org/1999/xlink" x="0px" y="0px"
	 viewBox="0 0 112.3 121" style="enable-background:new 0 0 112.3 121;" xml:space="preserve">
<style type="text/css">
	.st0{opacity:0.3;}
	.st1{fill:#97C1FF;}
	.st2{clip-path:url(#SVGID_2_);}
	.st3{fill:#6D6DAA;}
	.st4{clip-path:url(#SVGID_4_);}
	.st5{fill:#D6B5B0;}
	.st6{fill:#CC7E54;}
	.st7{fill:#FFFFFF;}
	.st8{fill:#EFDCD2;}
	.st9{fill:#B1F1A8;}
	.st10{fill:#4E4E96;}
	.st11{fill:#F9E2DC;}
	.st12{fill:#FF9797;}
	.st13{fill:#CED8EE;}
</style>
<title></title>
<g class="st0">
	<circle class="st1" cx="56.2" cy="65" r="56"/>
	<g>
		<defs>
			<circle id="SVGID_1_" cx="56.2" cy="65" r="56"/>
		</defs>
		<clipPath id="SVGID_2_">
			<use xlink:href="#SVGID_1_"  style="overflow:visible;"/>
		</clipPath>
		<g class="st2">
			<path class="st3" d="M-4.8,1c-1.1,0-2-0.9-2-2s0.9-2,2-2s2,0.9,2,2S-3.7,1-4.8,1z M-4.8-1L-4.8-1z"/>
			<path class="st3" d="M3.2,1c-1.1,0-2-0.9-2-2s0.9-2,2-2s2,0.9,2,2S4.3,1,3.2,1z M3.2-1L3.2-1z"/>
			<path class="st3" d="M11.2,1c-1.1,0-2-0.9-2-2s0.9-2,2-2s2,0.9,2,2S12.3,1,11.2,1z M11.2-1L11.2-1z"/>
			<path class="st3" d="M19.2,1c-1.1,0-2-0.9-2-2s0.9-2,2-2s2,0.9,2,2S20.3,1,19.2,1z M19.2-1L19.2-1z"/>
			<path class="st3" d="M27.2,1c-1.1,0-2-0.9-2-2s0.9-2,2-2s2,0.9,2,2S28.3,1,27.2,1z M27.2-1L27.2-1z"/>
			<path class="st3" d="M35.2,1c-1.1,0-2-0.9-2-2s0.9-2,2-2s2,0.9,2,2S36.3,1,35.2,1z M35.2-1L35.2-1z"/>
			<path class="st3" d="M43.2,1c-1.1,0-2-0.9-2-2s0.9-2,2-2s2,0.9,2,2S44.3,1,43.2,1z M43.2-1L43.2-1z"/>
			<path class="st3" d="M51.2,1c-1.1,0-2-0.9-2-2s0.9-2,2-2s2,0.9,2,2S52.3,1,51.2,1z M51.2-1L51.2-1z"/>
			<path class="st3" d="M59.2,1c-1.1,0-2-0.9-2-2s0.9-2,2-2s2,0.9,2,2S60.3,1,59.2,1z M59.2-1L59.2-1z"/>
			<path class="st3" d="M67.2,1c-1.1,0-2-0.9-2-2s0.9-2,2-2s2,0.9,2,2S68.3,1,67.2,1z M67.2-1L67.2-1z"/>
			<path class="st3" d="M75.2,1c-1.1,0-2-0.9-2-2s0.9-2,2-2s2,0.9,2,2S76.3,1,75.2,1z M75.2-1L75.2-1z"/>
			<path class="st3" d="M83.2,1c-1.1,0-2-0.9-2-2s0.9-2,2-2s2,0.9,2,2S84.3,1,83.2,1z M83.2-1L83.2-1z"/>
			<path class="st3" d="M91.2,1c-1.1,0-2-0.9-2-2s0.9-2,2-2s2,0.9,2,2S92.3,1,91.2,1z M91.2-1L91.2-1z"/>
			<path class="st3" d="M99.2,1c-1.1,0-2-0.9-2-2s0.9-2,2-2s2,0.9,2,2S100.3,1,99.2,1z M99.2-1L99.2-1z"/>
			<path class="st3" d="M107.2,1c-1.1,0-2-0.9-2-2s0.9-2,2-2s2,0.9,2,2S108.3,1,107.2,1z M107.2-1L107.2-1z"/>
			<path class="st3" d="M115.2,1c-1.1,0-2-0.9-2-2s0.9-2,2-2s2,0.9,2,2S116.3,1,115.2,1z M115.2-1L115.2-1z"/>
			<path class="st3" d="M-0.8,7c-1.1,0-2-0.9-2-2s0.9-2,2-2s2,0.9,2,2S0.3,7-0.8,7z M-0.8,5L-0.8,5z"/>
			<path class="st3" d="M7.2,7c-1.1,0-2-0.9-2-2s0.9-2,2-2s2,0.9,2,2S8.3,7,7.2,7z M7.2,5L7.2,5z"/>
			<path class="st3" d="M15.2,7c-1.1,0-2-0.9-2-2s0.9-2,2-2s2,0.9,2,2S16.3,7,15.2,7z M15.2,5L15.2,5z"/>
			<path class="st3" d="M23.2,7c-1.1,0-2-0.9-2-2s0.9-2,2-2c1.1,0,2,0.9,2,2S24.3,7,23.2,7z M23.2,5L23.2,5z"/>
			<path class="st3" d="M31.2,7c-1.1,0-2-0.9-2-2s0.9-2,2-2s2,0.9,2,2S32.3,7,31.2,7z M31.2,5L31.2,5z"/>
			<path class="st3" d="M39.2,7c-1.1,0-2-0.9-2-2s0.9-2,2-2s2,0.9,2,2S40.3,7,39.2,7z M39.2,5L39.2,5z"/>
			<path class="st3" d="M47.2,7c-1.1,0-2-0.9-2-2s0.9-2,2-2s2,0.9,2,2S48.3,7,47.2,7z M47.2,5L47.2,5z"/>
			<path class="st3" d="M55.2,7c-1.1,0-2-0.9-2-2s0.9-2,2-2s2,0.9,2,2S56.3,7,55.2,7z M55.2,5L55.2,5z"/>
			<path class="st3" d="M63.2,7c-1.1,0-2-0.9-2-2s0.9-2,2-2s2,0.9,2,2S64.3,7,63.2,7z M63.2,5L63.2,5z"/>
			<path class="st3" d="M71.2,7c-1.1,0-2-0.9-2-2s0.9-2,2-2s2,0.9,2,2S72.3,7,71.2,7z M71.2,5L71.2,5z"/>
			<path class="st3" d="M79.2,7c-1.1,0-2-0.9-2-2s0.9-2,2-2s2,0.9,2,2S80.3,7,79.2,7z M79.2,5L79.2,5z"/>
			<path class="st3" d="M87.2,7c-1.1,0-2-0.9-2-2s0.9-2,2-2s2,0.9,2,2S88.3,7,87.2,7z M87.2,5L87.2,5z"/>
			<path class="st3" d="M95.2,7c-1.1,0-2-0.9-2-2s0.9-2,2-2s2,0.9,2,2S96.3,7,95.2,7z M95.2,5L95.2,5z"/>
			<path class="st3" d="M103.2,7c-1.1,0-2-0.9-2-2s0.9-2,2-2s2,0.9,2,2S104.3,7,103.2,7z M103.2,5L103.2,5z"/>
			<path class="st3" d="M111.2,7c-1.1,0-2-0.9-2-2s0.9-2,2-2s2,0.9,2,2S112.3,7,111.2,7z M111.2,5L111.2,5z"/>
			<path class="st3" d="M119.2,7c-1.1,0-2-0.9-2-2s0.9-2,2-2s2,0.9,2,2S120.3,7,119.2,7z M119.2,5L119.2,5z"/>
			<path class="st3" d="M-4.8,13c-1.1,0-2-0.9-2-2s0.9-2,2-2s2,0.9,2,2S-3.7,13-4.8,13z M-4.8,11L-4.8,11z"/>
			<path class="st3" d="M3.2,13c-1.1,0-2-0.9-2-2s0.9-2,2-2s2,0.9,2,2S4.3,13,3.2,13z M3.2,11L3.2,11z"/>
			<path class="st3" d="M11.2,13c-1.1,0-2-0.9-2-2s0.9-2,2-2s2,0.9,2,2S12.3,13,11.2,13z M11.2,11L11.2,11z"/>
			<path class="st3" d="M19.2,13c-1.1,0-2-0.9-2-2s0.9-2,2-2s2,0.9,2,2S20.3,13,19.2,13z M19.2,11L19.2,11z"/>
			<path class="st3" d="M27.2,13c-1.1,0-2-0.9-2-2s0.9-2,2-2s2,0.9,2,2S28.3,13,27.2,13z M27.2,11L27.2,11z"/>
			<path class="st3" d="M35.2,13c-1.1,0-2-0.9-2-2s0.9-2,2-2s2,0.9,2,2S36.3,13,35.2,13z M35.2,11L35.2,11z"/>
			<path class="st3" d="M43.2,13c-1.1,0-2-0.9-2-2s0.9-2,2-2s2,0.9,2,2S44.3,13,43.2,13z M43.2,11L43.2,11z"/>
			<path class="st3" d="M51.2,13c-1.1,0-2-0.9-2-2s0.9-2,2-2s2,0.9,2,2S52.3,13,51.2,13z M51.2,11L51.2,11z"/>
			<path class="st3" d="M59.2,13c-1.1,0-2-0.9-2-2s0.9-2,2-2s2,0.9,2,2S60.3,13,59.2,13z M59.2,11L59.2,11z"/>
			<path class="st3" d="M67.2,13c-1.1,0-2-0.9-2-2s0.9-2,2-2s2,0.9,2,2S68.3,13,67.2,13z M67.2,11L67.2,11z"/>
			<path class="st3" d="M75.2,13c-1.1,0-2-0.9-2-2s0.9-2,2-2s2,0.9,2,2S76.3,13,75.2,13z M75.2,11L75.2,11z"/>
			<path class="st3" d="M83.2,13c-1.1,0-2-0.9-2-2s0.9-2,2-2s2,0.9,2,2S84.3,13,83.2,13z M83.2,11L83.2,11z"/>
			<path class="st3" d="M91.2,13c-1.1,0-2-0.9-2-2s0.9-2,2-2s2,0.9,2,2S92.3,13,91.2,13z M91.2,11L91.2,11z"/>
			<path class="st3" d="M99.2,13c-1.1,0-2-0.9-2-2s0.9-2,2-2s2,0.9,2,2S100.3,13,99.2,13z M99.2,11L99.2,11z"/>
			<path class="st3" d="M107.2,13c-1.1,0-2-0.9-2-2s0.9-2,2-2s2,0.9,2,2S108.3,13,107.2,13z M107.2,11L107.2,11z"/>
			<path class="st3" d="M115.2,13c-1.1,0-2-0.9-2-2s0.9-2,2-2s2,0.9,2,2S116.3,13,115.2,13z M115.2,11L115.2,11z"/>
			<path class="st3" d="M-0.8,19c-1.1,0-2-0.9-2-2s0.9-2,2-2s2,0.9,2,2S0.3,19-0.8,19z M-0.8,17L-0.8,17z"/>
			<path class="st3" d="M7.2,19c-1.1,0-2-0.9-2-2s0.9-2,2-2s2,0.9,2,2S8.3,19,7.2,19z M7.2,17L7.2,17z"/>
			<path class="st3" d="M15.2,19c-1.1,0-2-0.9-2-2s0.9-2,2-2s2,0.9,2,2S16.3,19,15.2,19z M15.2,17L15.2,17z"/>
			<path class="st3" d="M23.2,19c-1.1,0-2-0.9-2-2s0.9-2,2-2c1.1,0,2,0.9,2,2S24.3,19,23.2,19z M23.2,17L23.2,17z"/>
			<path class="st3" d="M31.2,19c-1.1,0-2-0.9-2-2s0.9-2,2-2s2,0.9,2,2S32.3,19,31.2,19z M31.2,17L31.2,17z"/>
			<path class="st3" d="M39.2,19c-1.1,0-2-0.9-2-2s0.9-2,2-2s2,0.9,2,2S40.3,19,39.2,19z M39.2,17L39.2,17z"/>
			<path class="st3" d="M47.2,19c-1.1,0-2-0.9-2-2s0.9-2,2-2s2,0.9,2,2S48.3,19,47.2,19z M47.2,17L47.2,17z"/>
			<path class="st3" d="M55.2,19c-1.1,0-2-0.9-2-2s0.9-2,2-2s2,0.9,2,2S56.3,19,55.2,19z M55.2,17L55.2,17z"/>
			<path class="st3" d="M63.2,19c-1.1,0-2-0.9-2-2s0.9-2,2-2s2,0.9,2,2S64.3,19,63.2,19z M63.2,17L63.2,17z"/>
			<path class="st3" d="M71.2,19c-1.1,0-2-0.9-2-2s0.9-2,2-2s2,0.9,2,2S72.3,19,71.2,19z M71.2,17L71.2,17z"/>
			<path class="st3" d="M79.2,19c-1.1,0-2-0.9-2-2s0.9-2,2-2s2,0.9,2,2S80.3,19,79.2,19z M79.2,17L79.2,17z"/>
			<path class="st3" d="M87.2,19c-1.1,0-2-0.9-2-2s0.9-2,2-2s2,0.9,2,2S88.3,19,87.2,19z M87.2,17L87.2,17z"/>
			<path class="st3" d="M95.2,19c-1.1,0-2-0.9-2-2s0.9-2,2-2s2,0.9,2,2S96.3,19,95.2,19z M95.2,17L95.2,17z"/>
			<path class="st3" d="M103.2,19c-1.1,0-2-0.9-2-2s0.9-2,2-2s2,0.9,2,2S104.3,19,103.2,19z M103.2,17L103.2,17z"/>
			<path class="st3" d="M111.2,19c-1.1,0-2-0.9-2-2s0.9-2,2-2s2,0.9,2,2S112.3,19,111.2,19z M111.2,17L111.2,17z"/>
			<path class="st3" d="M119.2,19c-1.1,0-2-0.9-2-2s0.9-2,2-2s2,0.9,2,2S120.3,19,119.2,19z M119.2,17L119.2,17z"/>
			<path class="st3" d="M-4.8,25c-1.1,0-2-0.9-2-2s0.9-2,2-2s2,0.9,2,2S-3.7,25-4.8,25z M-4.8,23L-4.8,23z"/>
			<path class="st3" d="M3.2,25c-1.1,0-2-0.9-2-2s0.9-2,2-2s2,0.9,2,2S4.3,25,3.2,25z M3.2,23L3.2,23z"/>
			<path class="st3" d="M11.2,25c-1.1,0-2-0.9-2-2s0.9-2,2-2s2,0.9,2,2S12.3,25,11.2,25z M11.2,23L11.2,23z"/>
			<path class="st3" d="M19.2,25c-1.1,0-2-0.9-2-2s0.9-2,2-2s2,0.9,2,2S20.3,25,19.2,25z M19.2,23L19.2,23z"/>
			<path class="st3" d="M27.2,25c-1.1,0-2-0.9-2-2s0.9-2,2-2s2,0.9,2,2S28.3,25,27.2,25z M27.2,23L27.2,23z"/>
			<path class="st3" d="M35.2,25c-1.1,0-2-0.9-2-2s0.9-2,2-2s2,0.9,2,2S36.3,25,35.2,25z M35.2,23L35.2,23z"/>
			<path class="st3" d="M43.2,25c-1.1,0-2-0.9-2-2s0.9-2,2-2s2,0.9,2,2S44.3,25,43.2,25z M43.2,23L43.2,23z"/>
			<path class="st3" d="M51.2,25c-1.1,0-2-0.9-2-2s0.9-2,2-2s2,0.9,2,2S52.3,25,51.2,25z M51.2,23L51.2,23z"/>
			<path class="st3" d="M59.2,25c-1.1,0-2-0.9-2-2s0.9-2,2-2s2,0.9,2,2S60.3,25,59.2,25z M59.2,23L59.2,23z"/>
			<path class="st3" d="M67.2,25c-1.1,0-2-0.9-2-2s0.9-2,2-2s2,0.9,2,2S68.3,25,67.2,25z M67.2,23L67.2,23z"/>
			<path class="st3" d="M75.2,25c-1.1,0-2-0.9-2-2s0.9-2,2-2s2,0.9,2,2S76.3,25,75.2,25z M75.2,23L75.2,23z"/>
			<path class="st3" d="M83.2,25c-1.1,0-2-0.9-2-2s0.9-2,2-2s2,0.9,2,2S84.3,25,83.2,25z M83.2,23L83.2,23z"/>
			<path class="st3" d="M91.2,25c-1.1,0-2-0.9-2-2s0.9-2,2-2s2,0.9,2,2S92.3,25,91.2,25z M91.2,23L91.2,23z"/>
			<path class="st3" d="M99.2,25c-1.1,0-2-0.9-2-2s0.9-2,2-2s2,0.9,2,2S100.3,25,99.2,25z M99.2,23L99.2,23z"/>
			<path class="st3" d="M107.2,25c-1.1,0-2-0.9-2-2s0.9-2,2-2s2,0.9,2,2S108.3,25,107.2,25z M107.2,23L107.2,23z"/>
			<path class="st3" d="M115.2,25c-1.1,0-2-0.9-2-2s0.9-2,2-2s2,0.9,2,2S116.3,25,115.2,25z M115.2,23L115.2,23z"/>
			<path class="st3" d="M-0.8,31c-1.1,0-2-0.9-2-2c0-1.1,0.9-2,2-2s2,0.9,2,2C1.2,30.1,0.3,31-0.8,31z M-0.8,29L-0.8,29z"/>
			<path class="st3" d="M7.2,31c-1.1,0-2-0.9-2-2c0-1.1,0.9-2,2-2s2,0.9,2,2C9.2,30.1,8.3,31,7.2,31z M7.2,29L7.2,29z"/>
			<path class="st3" d="M15.2,31c-1.1,0-2-0.9-2-2c0-1.1,0.9-2,2-2s2,0.9,2,2C17.2,30.1,16.3,31,15.2,31z M15.2,29L15.2,29z"/>
			<path class="st3" d="M23.2,31c-1.1,0-2-0.9-2-2c0-1.1,0.9-2,2-2c1.1,0,2,0.9,2,2C25.2,30.1,24.3,31,23.2,31z M23.2,29L23.2,29z"
				/>
			<path class="st3" d="M31.2,31c-1.1,0-2-0.9-2-2c0-1.1,0.9-2,2-2s2,0.9,2,2C33.2,30.1,32.3,31,31.2,31z M31.2,29L31.2,29z"/>
			<path class="st3" d="M39.2,31c-1.1,0-2-0.9-2-2c0-1.1,0.9-2,2-2s2,0.9,2,2C41.2,30.1,40.3,31,39.2,31z M39.2,29L39.2,29z"/>
			<path class="st3" d="M47.2,31c-1.1,0-2-0.9-2-2c0-1.1,0.9-2,2-2s2,0.9,2,2C49.2,30.1,48.3,31,47.2,31z M47.2,29L47.2,29z"/>
			<path class="st3" d="M55.2,31c-1.1,0-2-0.9-2-2c0-1.1,0.9-2,2-2s2,0.9,2,2C57.2,30.1,56.3,31,55.2,31z M55.2,29L55.2,29z"/>
			<path class="st3" d="M63.2,31c-1.1,0-2-0.9-2-2c0-1.1,0.9-2,2-2s2,0.9,2,2C65.2,30.1,64.3,31,63.2,31z M63.2,29L63.2,29z"/>
			<path class="st3" d="M71.2,31c-1.1,0-2-0.9-2-2c0-1.1,0.9-2,2-2s2,0.9,2,2C73.2,30.1,72.3,31,71.2,31z M71.2,29L71.2,29z"/>
			<path class="st3" d="M79.2,31c-1.1,0-2-0.9-2-2c0-1.1,0.9-2,2-2s2,0.9,2,2C81.2,30.1,80.3,31,79.2,31z M79.2,29L79.2,29z"/>
			<path class="st3" d="M87.2,31c-1.1,0-2-0.9-2-2c0-1.1,0.9-2,2-2s2,0.9,2,2C89.2,30.1,88.3,31,87.2,31z M87.2,29L87.2,29z"/>
			<path class="st3" d="M95.2,31c-1.1,0-2-0.9-2-2c0-1.1,0.9-2,2-2s2,0.9,2,2C97.2,30.1,96.3,31,95.2,31z M95.2,29L95.2,29z"/>
			<path class="st3" d="M103.2,31c-1.1,0-2-0.9-2-2c0-1.1,0.9-2,2-2s2,0.9,2,2C105.2,30.1,104.3,31,103.2,31z M103.2,29L103.2,29z"
				/>
			<path class="st3" d="M111.2,31c-1.1,0-2-0.9-2-2c0-1.1,0.9-2,2-2s2,0.9,2,2C113.2,30.1,112.3,31,111.2,31z M111.2,29L111.2,29z"
				/>
			<path class="st3" d="M119.2,31c-1.1,0-2-0.9-2-2c0-1.1,0.9-2,2-2s2,0.9,2,2C121.2,30.1,120.3,31,119.2,31z M119.2,29L119.2,29z"
				/>
			<path class="st3" d="M-4.8,37c-1.1,0-2-0.9-2-2s0.9-2,2-2s2,0.9,2,2S-3.7,37-4.8,37z M-4.8,35L-4.8,35z"/>
			<path class="st3" d="M3.2,37c-1.1,0-2-0.9-2-2s0.9-2,2-2s2,0.9,2,2S4.3,37,3.2,37z M3.2,35L3.2,35z"/>
			<path class="st3" d="M11.2,37c-1.1,0-2-0.9-2-2s0.9-2,2-2s2,0.9,2,2S12.3,37,11.2,37z M11.2,35L11.2,35z"/>
			<path class="st3" d="M19.2,37c-1.1,0-2-0.9-2-2s0.9-2,2-2s2,0.9,2,2S20.3,37,19.2,37z M19.2,35L19.2,35z"/>
			<path class="st3" d="M27.2,37c-1.1,0-2-0.9-2-2s0.9-2,2-2s2,0.9,2,2S28.3,37,27.2,37z M27.2,35L27.2,35z"/>
			<path class="st3" d="M35.2,37c-1.1,0-2-0.9-2-2s0.9-2,2-2s2,0.9,2,2S36.3,37,35.2,37z M35.2,35L35.2,35z"/>
			<path class="st3" d="M43.2,37c-1.1,0-2-0.9-2-2s0.9-2,2-2s2,0.9,2,2S44.3,37,43.2,37z M43.2,35L43.2,35z"/>
			<path class="st3" d="M51.2,37c-1.1,0-2-0.9-2-2s0.9-2,2-2s2,0.9,2,2S52.3,37,51.2,37z M51.2,35L51.2,35z"/>
			<path class="st3" d="M59.2,37c-1.1,0-2-0.9-2-2s0.9-2,2-2s2,0.9,2,2S60.3,37,59.2,37z M59.2,35L59.2,35z"/>
			<path class="st3" d="M67.2,37c-1.1,0-2-0.9-2-2s0.9-2,2-2s2,0.9,2,2S68.3,37,67.2,37z M67.2,35L67.2,35z"/>
			<path class="st3" d="M75.2,37c-1.1,0-2-0.9-2-2s0.9-2,2-2s2,0.9,2,2S76.3,37,75.2,37z M75.2,35L75.2,35z"/>
			<path class="st3" d="M83.2,37c-1.1,0-2-0.9-2-2s0.9-2,2-2s2,0.9,2,2S84.3,37,83.2,37z M83.2,35L83.2,35z"/>
			<path class="st3" d="M91.2,37c-1.1,0-2-0.9-2-2s0.9-2,2-2s2,0.9,2,2S92.3,37,91.2,37z M91.2,35L91.2,35z"/>
			<path class="st3" d="M99.2,37c-1.1,0-2-0.9-2-2s0.9-2,2-2s2,0.9,2,2S100.3,37,99.2,37z M99.2,35L99.2,35z"/>
			<path class="st3" d="M107.2,37c-1.1,0-2-0.9-2-2s0.9-2,2-2s2,0.9,2,2S108.3,37,107.2,37z M107.2,35L107.2,35z"/>
			<path class="st3" d="M115.2,37c-1.1,0-2-0.9-2-2s0.9-2,2-2s2,0.9,2,2S116.3,37,115.2,37z M115.2,35L115.2,35z"/>
			<path class="st3" d="M-0.8,43c-1.1,0-2-0.9-2-2s0.9-2,2-2s2,0.9,2,2S0.3,43-0.8,43z M-0.8,41L-0.8,41z"/>
			<path class="st3" d="M7.2,43c-1.1,0-2-0.9-2-2s0.9-2,2-2s2,0.9,2,2S8.3,43,7.2,43z M7.2,41L7.2,41z"/>
			<path class="st3" d="M15.2,43c-1.1,0-2-0.9-2-2s0.9-2,2-2s2,0.9,2,2S16.3,43,15.2,43z M15.2,41L15.2,41z"/>
			<path class="st3" d="M23.2,43c-1.1,0-2-0.9-2-2s0.9-2,2-2c1.1,0,2,0.9,2,2S24.3,43,23.2,43z M23.2,41L23.2,41z"/>
			<path class="st3" d="M31.2,43c-1.1,0-2-0.9-2-2s0.9-2,2-2s2,0.9,2,2S32.3,43,31.2,43z M31.2,41L31.2,41z"/>
			<path class="st3" d="M39.2,43c-1.1,0-2-0.9-2-2s0.9-2,2-2s2,0.9,2,2S40.3,43,39.2,43z M39.2,41L39.2,41z"/>
			<path class="st3" d="M47.2,43c-1.1,0-2-0.9-2-2s0.9-2,2-2s2,0.9,2,2S48.3,43,47.2,43z M47.2,41L47.2,41z"/>
			<path class="st3" d="M55.2,43c-1.1,0-2-0.9-2-2s0.9-2,2-2s2,0.9,2,2S56.3,43,55.2,43z M55.2,41L55.2,41z"/>
			<path class="st3" d="M63.2,43c-1.1,0-2-0.9-2-2s0.9-2,2-2s2,0.9,2,2S64.3,43,63.2,43z M63.2,41L63.2,41z"/>
			<path class="st3" d="M71.2,43c-1.1,0-2-0.9-2-2s0.9-2,2-2s2,0.9,2,2S72.3,43,71.2,43z M71.2,41L71.2,41z"/>
			<path class="st3" d="M79.2,43c-1.1,0-2-0.9-2-2s0.9-2,2-2s2,0.9,2,2S80.3,43,79.2,43z M79.2,41L79.2,41z"/>
			<path class="st3" d="M87.2,43c-1.1,0-2-0.9-2-2s0.9-2,2-2s2,0.9,2,2S88.3,43,87.2,43z M87.2,41L87.2,41z"/>
			<path class="st3" d="M95.2,43c-1.1,0-2-0.9-2-2s0.9-2,2-2s2,0.9,2,2S96.3,43,95.2,43z M95.2,41L95.2,41z"/>
			<path class="st3" d="M103.2,43c-1.1,0-2-0.9-2-2s0.9-2,2-2s2,0.9,2,2S104.3,43,103.2,43z M103.2,41L103.2,41z"/>
			<path class="st3" d="M111.2,43c-1.1,0-2-0.9-2-2s0.9-2,2-2s2,0.9,2,2S112.3,43,111.2,43z M111.2,41L111.2,41z"/>
			<path class="st3" d="M119.2,43c-1.1,0-2-0.9-2-2s0.9-2,2-2s2,0.9,2,2S120.3,43,119.2,43z M119.2,41L119.2,41z"/>
			<path class="st3" d="M-4.8,49c-1.1,0-2-0.9-2-2s0.9-2,2-2s2,0.9,2,2S-3.7,49-4.8,49z M-4.8,47L-4.8,47z"/>
			<path class="st3" d="M3.2,49c-1.1,0-2-0.9-2-2s0.9-2,2-2s2,0.9,2,2S4.3,49,3.2,49z M3.2,47L3.2,47z"/>
			<path class="st3" d="M11.2,49c-1.1,0-2-0.9-2-2s0.9-2,2-2s2,0.9,2,2S12.3,49,11.2,49z M11.2,47L11.2,47z"/>
			<path class="st3" d="M19.2,49c-1.1,0-2-0.9-2-2s0.9-2,2-2s2,0.9,2,2S20.3,49,19.2,49z M19.2,47L19.2,47z"/>
			<path class="st3" d="M27.2,49c-1.1,0-2-0.9-2-2s0.9-2,2-2s2,0.9,2,2S28.3,49,27.2,49z M27.2,47L27.2,47z"/>
			<path class="st3" d="M35.2,49c-1.1,0-2-0.9-2-2s0.9-2,2-2s2,0.9,2,2S36.3,49,35.2,49z M35.2,47L35.2,47z"/>
			<path class="st3" d="M43.2,49c-1.1,0-2-0.9-2-2s0.9-2,2-2s2,0.9,2,2S44.3,49,43.2,49z M43.2,47L43.2,47z"/>
			<path class="st3" d="M51.2,49c-1.1,0-2-0.9-2-2s0.9-2,2-2s2,0.9,2,2S52.3,49,51.2,49z M51.2,47L51.2,47z"/>
			<path class="st3" d="M59.2,49c-1.1,0-2-0.9-2-2s0.9-2,2-2s2,0.9,2,2S60.3,49,59.2,49z M59.2,47L59.2,47z"/>
			<path class="st3" d="M67.2,49c-1.1,0-2-0.9-2-2s0.9-2,2-2s2,0.9,2,2S68.3,49,67.2,49z M67.2,47L67.2,47z"/>
			<path class="st3" d="M75.2,49c-1.1,0-2-0.9-2-2s0.9-2,2-2s2,0.9,2,2S76.3,49,75.2,49z M75.2,47L75.2,47z"/>
			<path class="st3" d="M83.2,49c-1.1,0-2-0.9-2-2s0.9-2,2-2s2,0.9,2,2S84.3,49,83.2,49z M83.2,47L83.2,47z"/>
			<path class="st3" d="M91.2,49c-1.1,0-2-0.9-2-2s0.9-2,2-2s2,0.9,2,2S92.3,49,91.2,49z M91.2,47L91.2,47z"/>
			<path class="st3" d="M99.2,49c-1.1,0-2-0.9-2-2s0.9-2,2-2s2,0.9,2,2S100.3,49,99.2,49z M99.2,47L99.2,47z"/>
			<path class="st3" d="M107.2,49c-1.1,0-2-0.9-2-2s0.9-2,2-2s2,0.9,2,2S108.3,49,107.2,49z M107.2,47L107.2,47z"/>
			<path class="st3" d="M115.2,49c-1.1,0-2-0.9-2-2s0.9-2,2-2s2,0.9,2,2S116.3,49,115.2,49z M115.2,47L115.2,47z"/>
			<path class="st3" d="M-0.8,55c-1.1,0-2-0.9-2-2s0.9-2,2-2s2,0.9,2,2S0.3,55-0.8,55z M-0.8,53L-0.8,53z"/>
			<path class="st3" d="M7.2,55c-1.1,0-2-0.9-2-2s0.9-2,2-2s2,0.9,2,2S8.3,55,7.2,55z M7.2,53L7.2,53z"/>
			<path class="st3" d="M15.2,55c-1.1,0-2-0.9-2-2s0.9-2,2-2s2,0.9,2,2S16.3,55,15.2,55z M15.2,53L15.2,53z"/>
			<path class="st3" d="M23.2,55c-1.1,0-2-0.9-2-2s0.9-2,2-2c1.1,0,2,0.9,2,2S24.3,55,23.2,55z M23.2,53L23.2,53z"/>
			<path class="st3" d="M31.2,55c-1.1,0-2-0.9-2-2s0.9-2,2-2s2,0.9,2,2S32.3,55,31.2,55z M31.2,53L31.2,53z"/>
			<path class="st3" d="M39.2,55c-1.1,0-2-0.9-2-2s0.9-2,2-2s2,0.9,2,2S40.3,55,39.2,55z M39.2,53L39.2,53z"/>
			<path class="st3" d="M47.2,55c-1.1,0-2-0.9-2-2s0.9-2,2-2s2,0.9,2,2S48.3,55,47.2,55z M47.2,53L47.2,53z"/>
			<path class="st3" d="M55.2,55c-1.1,0-2-0.9-2-2s0.9-2,2-2s2,0.9,2,2S56.3,55,55.2,55z M55.2,53L55.2,53z"/>
			<path class="st3" d="M63.2,55c-1.1,0-2-0.9-2-2s0.9-2,2-2s2,0.9,2,2S64.3,55,63.2,55z M63.2,53L63.2,53z"/>
			<path class="st3" d="M71.2,55c-1.1,0-2-0.9-2-2s0.9-2,2-2s2,0.9,2,2S72.3,55,71.2,55z M71.2,53L71.2,53z"/>
			<path class="st3" d="M79.2,55c-1.1,0-2-0.9-2-2s0.9-2,2-2s2,0.9,2,2S80.3,55,79.2,55z M79.2,53L79.2,53z"/>
			<path class="st3" d="M87.2,55c-1.1,0-2-0.9-2-2s0.9-2,2-2s2,0.9,2,2S88.3,55,87.2,55z M87.2,53L87.2,53z"/>
			<path class="st3" d="M95.2,55c-1.1,0-2-0.9-2-2s0.9-2,2-2s2,0.9,2,2S96.3,55,95.2,55z M95.2,53L95.2,53z"/>
			<path class="st3" d="M103.2,55c-1.1,0-2-0.9-2-2s0.9-2,2-2s2,0.9,2,2S104.3,55,103.2,55z M103.2,53L103.2,53z"/>
			<path class="st3" d="M111.2,55c-1.1,0-2-0.9-2-2s0.9-2,2-2s2,0.9,2,2S112.3,55,111.2,55z M111.2,53L111.2,53z"/>
			<path class="st3" d="M119.2,55c-1.1,0-2-0.9-2-2s0.9-2,2-2s2,0.9,2,2S120.3,55,119.2,55z M119.2,53L119.2,53z"/>
			<path class="st3" d="M-4.8,61c-1.1,0-2-0.9-2-2s0.9-2,2-2s2,0.9,2,2S-3.7,61-4.8,61z M-4.8,59L-4.8,59z"/>
			<path class="st3" d="M3.2,61c-1.1,0-2-0.9-2-2s0.9-2,2-2s2,0.9,2,2S4.3,61,3.2,61z M3.2,59L3.2,59z"/>
			<path class="st3" d="M11.2,61c-1.1,0-2-0.9-2-2s0.9-2,2-2s2,0.9,2,2S12.3,61,11.2,61z M11.2,59L11.2,59z"/>
			<path class="st3" d="M19.2,61c-1.1,0-2-0.9-2-2s0.9-2,2-2s2,0.9,2,2S20.3,61,19.2,61z M19.2,59L19.2,59z"/>
			<path class="st3" d="M27.2,61c-1.1,0-2-0.9-2-2s0.9-2,2-2s2,0.9,2,2S28.3,61,27.2,61z M27.2,59L27.2,59z"/>
			<path class="st3" d="M35.2,61c-1.1,0-2-0.9-2-2s0.9-2,2-2s2,0.9,2,2S36.3,61,35.2,61z M35.2,59L35.2,59z"/>
			<path class="st3" d="M43.2,61c-1.1,0-2-0.9-2-2s0.9-2,2-2s2,0.9,2,2S44.3,61,43.2,61z M43.2,59L43.2,59z"/>
			<path class="st3" d="M51.2,61c-1.1,0-2-0.9-2-2s0.9-2,2-2s2,0.9,2,2S52.3,61,51.2,61z M51.2,59L51.2,59z"/>
			<path class="st3" d="M59.2,61c-1.1,0-2-0.9-2-2s0.9-2,2-2s2,0.9,2,2S60.3,61,59.2,61z M59.2,59L59.2,59z"/>
			<path class="st3" d="M67.2,61c-1.1,0-2-0.9-2-2s0.9-2,2-2s2,0.9,2,2S68.3,61,67.2,61z M67.2,59L67.2,59z"/>
			<path class="st3" d="M75.2,61c-1.1,0-2-0.9-2-2s0.9-2,2-2s2,0.9,2,2S76.3,61,75.2,61z M75.2,59L75.2,59z"/>
			<path class="st3" d="M83.2,61c-1.1,0-2-0.9-2-2s0.9-2,2-2s2,0.9,2,2S84.3,61,83.2,61z M83.2,59L83.2,59z"/>
			<path class="st3" d="M91.2,61c-1.1,0-2-0.9-2-2s0.9-2,2-2s2,0.9,2,2S92.3,61,91.2,61z M91.2,59L91.2,59z"/>
			<path class="st3" d="M99.2,61c-1.1,0-2-0.9-2-2s0.9-2,2-2s2,0.9,2,2S100.3,61,99.2,61z M99.2,59L99.2,59z"/>
			<path class="st3" d="M107.2,61c-1.1,0-2-0.9-2-2s0.9-2,2-2s2,0.9,2,2S108.3,61,107.2,61z M107.2,59L107.2,59z"/>
			<path class="st3" d="M115.2,61c-1.1,0-2-0.9-2-2s0.9-2,2-2s2,0.9,2,2S116.3,61,115.2,61z M115.2,59L115.2,59z"/>
			<path class="st3" d="M-0.8,67c-1.1,0-2-0.9-2-2s0.9-2,2-2s2,0.9,2,2S0.3,67-0.8,67z M-0.8,65L-0.8,65z"/>
			<path class="st3" d="M7.2,67c-1.1,0-2-0.9-2-2s0.9-2,2-2s2,0.9,2,2S8.3,67,7.2,67z M7.2,65L7.2,65z"/>
			<path class="st3" d="M15.2,67c-1.1,0-2-0.9-2-2s0.9-2,2-2s2,0.9,2,2S16.3,67,15.2,67z M15.2,65L15.2,65z"/>
			<path class="st3" d="M23.2,67c-1.1,0-2-0.9-2-2s0.9-2,2-2c1.1,0,2,0.9,2,2S24.3,67,23.2,67z M23.2,65L23.2,65z"/>
			<path class="st3" d="M31.2,67c-1.1,0-2-0.9-2-2s0.9-2,2-2s2,0.9,2,2S32.3,67,31.2,67z M31.2,65L31.2,65z"/>
			<path class="st3" d="M39.2,67c-1.1,0-2-0.9-2-2s0.9-2,2-2s2,0.9,2,2S40.3,67,39.2,67z M39.2,65L39.2,65z"/>
			<path class="st3" d="M47.2,67c-1.1,0-2-0.9-2-2s0.9-2,2-2s2,0.9,2,2S48.3,67,47.2,67z M47.2,65L47.2,65z"/>
			<path class="st3" d="M55.2,67c-1.1,0-2-0.9-2-2s0.9-2,2-2s2,0.9,2,2S56.3,67,55.2,67z M55.2,65L55.2,65z"/>
			<path class="st3" d="M63.2,67c-1.1,0-2-0.9-2-2s0.9-2,2-2s2,0.9,2,2S64.3,67,63.2,67z M63.2,65L63.2,65z"/>
			<path class="st3" d="M71.2,67c-1.1,0-2-0.9-2-2s0.9-2,2-2s2,0.9,2,2S72.3,67,71.2,67z M71.2,65L71.2,65z"/>
			<path class="st3" d="M79.2,67c-1.1,0-2-0.9-2-2s0.9-2,2-2s2,0.9,2,2S80.3,67,79.2,67z M79.2,65L79.2,65z"/>
			<path class="st3" d="M87.2,67c-1.1,0-2-0.9-2-2s0.9-2,2-2s2,0.9,2,2S88.3,67,87.2,67z M87.2,65L87.2,65z"/>
			<path class="st3" d="M95.2,67c-1.1,0-2-0.9-2-2s0.9-2,2-2s2,0.9,2,2S96.3,67,95.2,67z M95.2,65L95.2,65z"/>
			<path class="st3" d="M103.2,67c-1.1,0-2-0.9-2-2s0.9-2,2-2s2,0.9,2,2S104.3,67,103.2,67z M103.2,65L103.2,65z"/>
			<path class="st3" d="M111.2,67c-1.1,0-2-0.9-2-2s0.9-2,2-2s2,0.9,2,2S112.3,67,111.2,67z M111.2,65L111.2,65z"/>
			<path class="st3" d="M119.2,67c-1.1,0-2-0.9-2-2s0.9-2,2-2s2,0.9,2,2S120.3,67,119.2,67z M119.2,65L119.2,65z"/>
			<path class="st3" d="M-4.8,73c-1.1,0-2-0.9-2-2s0.9-2,2-2s2,0.9,2,2S-3.7,73-4.8,73z M-4.8,71L-4.8,71z"/>
			<path class="st3" d="M3.2,73c-1.1,0-2-0.9-2-2s0.9-2,2-2s2,0.9,2,2S4.3,73,3.2,73z M3.2,71L3.2,71z"/>
			<path class="st3" d="M11.2,73c-1.1,0-2-0.9-2-2s0.9-2,2-2s2,0.9,2,2S12.3,73,11.2,73z M11.2,71L11.2,71z"/>
			<path class="st3" d="M19.2,73c-1.1,0-2-0.9-2-2s0.9-2,2-2s2,0.9,2,2S20.3,73,19.2,73z M19.2,71L19.2,71z"/>
			<path class="st3" d="M27.2,73c-1.1,0-2-0.9-2-2s0.9-2,2-2s2,0.9,2,2S28.3,73,27.2,73z M27.2,71L27.2,71z"/>
			<path class="st3" d="M35.2,73c-1.1,0-2-0.9-2-2s0.9-2,2-2s2,0.9,2,2S36.3,73,35.2,73z M35.2,71L35.2,71z"/>
			<path class="st3" d="M43.2,73c-1.1,0-2-0.9-2-2s0.9-2,2-2s2,0.9,2,2S44.3,73,43.2,73z M43.2,71L43.2,71z"/>
			<path class="st3" d="M51.2,73c-1.1,0-2-0.9-2-2s0.9-2,2-2s2,0.9,2,2S52.3,73,51.2,73z M51.2,71L51.2,71z"/>
			<path class="st3" d="M59.2,73c-1.1,0-2-0.9-2-2s0.9-2,2-2s2,0.9,2,2S60.3,73,59.2,73z M59.2,71L59.2,71z"/>
			<path class="st3" d="M67.2,73c-1.1,0-2-0.9-2-2s0.9-2,2-2s2,0.9,2,2S68.3,73,67.2,73z M67.2,71L67.2,71z"/>
			<path class="st3" d="M75.2,73c-1.1,0-2-0.9-2-2s0.9-2,2-2s2,0.9,2,2S76.3,73,75.2,73z M75.2,71L75.2,71z"/>
			<path class="st3" d="M83.2,73c-1.1,0-2-0.9-2-2s0.9-2,2-2s2,0.9,2,2S84.3,73,83.2,73z M83.2,71L83.2,71z"/>
			<path class="st3" d="M91.2,73c-1.1,0-2-0.9-2-2s0.9-2,2-2s2,0.9,2,2S92.3,73,91.2,73z M91.2,71L91.2,71z"/>
			<path class="st3" d="M99.2,73c-1.1,0-2-0.9-2-2s0.9-2,2-2s2,0.9,2,2S100.3,73,99.2,73z M99.2,71L99.2,71z"/>
			<path class="st3" d="M107.2,73c-1.1,0-2-0.9-2-2s0.9-2,2-2s2,0.9,2,2S108.3,73,107.2,73z M107.2,71L107.2,71z"/>
			<path class="st3" d="M115.2,73c-1.1,0-2-0.9-2-2s0.9-2,2-2s2,0.9,2,2S116.3,73,115.2,73z M115.2,71L115.2,71z"/>
			<path class="st3" d="M-0.8,79c-1.1,0-2-0.9-2-2s0.9-2,2-2s2,0.9,2,2S0.3,79-0.8,79z M-0.8,77L-0.8,77z"/>
			<path class="st3" d="M7.2,79c-1.1,0-2-0.9-2-2s0.9-2,2-2s2,0.9,2,2S8.3,79,7.2,79z M7.2,77L7.2,77z"/>
			<path class="st3" d="M15.2,79c-1.1,0-2-0.9-2-2s0.9-2,2-2s2,0.9,2,2S16.3,79,15.2,79z M15.2,77L15.2,77z"/>
			<path class="st3" d="M23.2,79c-1.1,0-2-0.9-2-2s0.9-2,2-2c1.1,0,2,0.9,2,2S24.3,79,23.2,79z M23.2,77L23.2,77z"/>
			<path class="st3" d="M31.2,79c-1.1,0-2-0.9-2-2s0.9-2,2-2s2,0.9,2,2S32.3,79,31.2,79z M31.2,77L31.2,77z"/>
			<path class="st3" d="M39.2,79c-1.1,0-2-0.9-2-2s0.9-2,2-2s2,0.9,2,2S40.3,79,39.2,79z M39.2,77L39.2,77z"/>
			<path class="st3" d="M47.2,79c-1.1,0-2-0.9-2-2s0.9-2,2-2s2,0.9,2,2S48.3,79,47.2,79z M47.2,77L47.2,77z"/>
			<path class="st3" d="M55.2,79c-1.1,0-2-0.9-2-2s0.9-2,2-2s2,0.9,2,2S56.3,79,55.2,79z M55.2,77L55.2,77z"/>
			<path class="st3" d="M63.2,79c-1.1,0-2-0.9-2-2s0.9-2,2-2s2,0.9,2,2S64.3,79,63.2,79z M63.2,77L63.2,77z"/>
			<path class="st3" d="M71.2,79c-1.1,0-2-0.9-2-2s0.9-2,2-2s2,0.9,2,2S72.3,79,71.2,79z M71.2,77L71.2,77z"/>
			<path class="st3" d="M79.2,79c-1.1,0-2-0.9-2-2s0.9-2,2-2s2,0.9,2,2S80.3,79,79.2,79z M79.2,77L79.2,77z"/>
			<path class="st3" d="M87.2,79c-1.1,0-2-0.9-2-2s0.9-2,2-2s2,0.9,2,2S88.3,79,87.2,79z M87.2,77L87.2,77z"/>
			<path class="st3" d="M95.2,79c-1.1,0-2-0.9-2-2s0.9-2,2-2s2,0.9,2,2S96.3,79,95.2,79z M95.2,77L95.2,77z"/>
			<path class="st3" d="M103.2,79c-1.1,0-2-0.9-2-2s0.9-2,2-2s2,0.9,2,2S104.3,79,103.2,79z M103.2,77L103.2,77z"/>
			<path class="st3" d="M111.2,79c-1.1,0-2-0.9-2-2s0.9-2,2-2s2,0.9,2,2S112.3,79,111.2,79z M111.2,77L111.2,77z"/>
			<path class="st3" d="M119.2,79c-1.1,0-2-0.9-2-2s0.9-2,2-2s2,0.9,2,2S120.3,79,119.2,79z M119.2,77L119.2,77z"/>
			<path class="st3" d="M-4.8,85c-1.1,0-2-0.9-2-2s0.9-2,2-2s2,0.9,2,2S-3.7,85-4.8,85z M-4.8,83L-4.8,83z"/>
			<path class="st3" d="M3.2,85c-1.1,0-2-0.9-2-2s0.9-2,2-2s2,0.9,2,2S4.3,85,3.2,85z M3.2,83L3.2,83z"/>
			<path class="st3" d="M11.2,85c-1.1,0-2-0.9-2-2s0.9-2,2-2s2,0.9,2,2S12.3,85,11.2,85z M11.2,83L11.2,83z"/>
			<path class="st3" d="M19.2,85c-1.1,0-2-0.9-2-2s0.9-2,2-2s2,0.9,2,2S20.3,85,19.2,85z M19.2,83L19.2,83z"/>
			<path class="st3" d="M27.2,85c-1.1,0-2-0.9-2-2s0.9-2,2-2s2,0.9,2,2S28.3,85,27.2,85z M27.2,83L27.2,83z"/>
			<path class="st3" d="M35.2,85c-1.1,0-2-0.9-2-2s0.9-2,2-2s2,0.9,2,2S36.3,85,35.2,85z M35.2,83L35.2,83z"/>
			<path class="st3" d="M43.2,85c-1.1,0-2-0.9-2-2s0.9-2,2-2s2,0.9,2,2S44.3,85,43.2,85z M43.2,83L43.2,83z"/>
			<path class="st3" d="M51.2,85c-1.1,0-2-0.9-2-2s0.9-2,2-2s2,0.9,2,2S52.3,85,51.2,85z M51.2,83L51.2,83z"/>
			<path class="st3" d="M59.2,85c-1.1,0-2-0.9-2-2s0.9-2,2-2s2,0.9,2,2S60.3,85,59.2,85z M59.2,83L59.2,83z"/>
			<path class="st3" d="M67.2,85c-1.1,0-2-0.9-2-2s0.9-2,2-2s2,0.9,2,2S68.3,85,67.2,85z M67.2,83L67.2,83z"/>
			<path class="st3" d="M75.2,85c-1.1,0-2-0.9-2-2s0.9-2,2-2s2,0.9,2,2S76.3,85,75.2,85z M75.2,83L75.2,83z"/>
			<path class="st3" d="M83.2,85c-1.1,0-2-0.9-2-2s0.9-2,2-2s2,0.9,2,2S84.3,85,83.2,85z M83.2,83L83.2,83z"/>
			<path class="st3" d="M91.2,85c-1.1,0-2-0.9-2-2s0.9-2,2-2s2,0.9,2,2S92.3,85,91.2,85z M91.2,83L91.2,83z"/>
			<path class="st3" d="M99.2,85c-1.1,0-2-0.9-2-2s0.9-2,2-2s2,0.9,2,2S100.3,85,99.2,85z M99.2,83L99.2,83z"/>
			<path class="st3" d="M107.2,85c-1.1,0-2-0.9-2-2s0.9-2,2-2s2,0.9,2,2S108.3,85,107.2,85z M107.2,83L107.2,83z"/>
			<path class="st3" d="M115.2,85c-1.1,0-2-0.9-2-2s0.9-2,2-2s2,0.9,2,2S116.3,85,115.2,85z M115.2,83L115.2,83z"/>
			<path class="st3" d="M-0.8,91c-1.1,0-2-0.9-2-2s0.9-2,2-2s2,0.9,2,2S0.3,91-0.8,91z M-0.8,89L-0.8,89z"/>
			<path class="st3" d="M7.2,91c-1.1,0-2-0.9-2-2s0.9-2,2-2s2,0.9,2,2S8.3,91,7.2,91z M7.2,89L7.2,89z"/>
			<path class="st3" d="M15.2,91c-1.1,0-2-0.9-2-2s0.9-2,2-2s2,0.9,2,2S16.3,91,15.2,91z M15.2,89L15.2,89z"/>
			<path class="st3" d="M23.2,91c-1.1,0-2-0.9-2-2s0.9-2,2-2c1.1,0,2,0.9,2,2S24.3,91,23.2,91z M23.2,89L23.2,89z"/>
			<path class="st3" d="M31.2,91c-1.1,0-2-0.9-2-2s0.9-2,2-2s2,0.9,2,2S32.3,91,31.2,91z M31.2,89L31.2,89z"/>
			<path class="st3" d="M39.2,91c-1.1,0-2-0.9-2-2s0.9-2,2-2s2,0.9,2,2S40.3,91,39.2,91z M39.2,89L39.2,89z"/>
			<path class="st3" d="M47.2,91c-1.1,0-2-0.9-2-2s0.9-2,2-2s2,0.9,2,2S48.3,91,47.2,91z M47.2,89L47.2,89z"/>
			<path class="st3" d="M55.2,91c-1.1,0-2-0.9-2-2s0.9-2,2-2s2,0.9,2,2S56.3,91,55.2,91z M55.2,89L55.2,89z"/>
			<path class="st3" d="M63.2,91c-1.1,0-2-0.9-2-2s0.9-2,2-2s2,0.9,2,2S64.3,91,63.2,91z M63.2,89L63.2,89z"/>
			<path class="st3" d="M71.2,91c-1.1,0-2-0.9-2-2s0.9-2,2-2s2,0.9,2,2S72.3,91,71.2,91z M71.2,89L71.2,89z"/>
			<path class="st3" d="M79.2,91c-1.1,0-2-0.9-2-2s0.9-2,2-2s2,0.9,2,2S80.3,91,79.2,91z M79.2,89L79.2,89z"/>
			<path class="st3" d="M87.2,91c-1.1,0-2-0.9-2-2s0.9-2,2-2s2,0.9,2,2S88.3,91,87.2,91z M87.2,89L87.2,89z"/>
			<path class="st3" d="M95.2,91c-1.1,0-2-0.9-2-2s0.9-2,2-2s2,0.9,2,2S96.3,91,95.2,91z M95.2,89L95.2,89z"/>
			<path class="st3" d="M103.2,91c-1.1,0-2-0.9-2-2s0.9-2,2-2s2,0.9,2,2S104.3,91,103.2,91z M103.2,89L103.2,89z"/>
			<path class="st3" d="M111.2,91c-1.1,0-2-0.9-2-2s0.9-2,2-2s2,0.9,2,2S112.3,91,111.2,91z M111.2,89L111.2,89z"/>
			<path class="st3" d="M119.2,91c-1.1,0-2-0.9-2-2s0.9-2,2-2s2,0.9,2,2S120.3,91,119.2,91z M119.2,89L119.2,89z"/>
			<path class="st3" d="M-4.8,97c-1.1,0-2-0.9-2-2s0.9-2,2-2s2,0.9,2,2S-3.7,97-4.8,97z M-4.8,95L-4.8,95z"/>
			<path class="st3" d="M3.2,97c-1.1,0-2-0.9-2-2s0.9-2,2-2s2,0.9,2,2S4.3,97,3.2,97z M3.2,95L3.2,95z"/>
			<path class="st3" d="M11.2,97c-1.1,0-2-0.9-2-2s0.9-2,2-2s2,0.9,2,2S12.3,97,11.2,97z M11.2,95L11.2,95z"/>
			<path class="st3" d="M19.2,97c-1.1,0-2-0.9-2-2s0.9-2,2-2s2,0.9,2,2S20.3,97,19.2,97z M19.2,95L19.2,95z"/>
			<path class="st3" d="M27.2,97c-1.1,0-2-0.9-2-2s0.9-2,2-2s2,0.9,2,2S28.3,97,27.2,97z M27.2,95L27.2,95z"/>
			<path class="st3" d="M35.2,97c-1.1,0-2-0.9-2-2s0.9-2,2-2s2,0.9,2,2S36.3,97,35.2,97z M35.2,95L35.2,95z"/>
			<path class="st3" d="M43.2,97c-1.1,0-2-0.9-2-2s0.9-2,2-2s2,0.9,2,2S44.3,97,43.2,97z M43.2,95L43.2,95z"/>
			<path class="st3" d="M51.2,97c-1.1,0-2-0.9-2-2s0.9-2,2-2s2,0.9,2,2S52.3,97,51.2,97z M51.2,95L51.2,95z"/>
			<path class="st3" d="M59.2,97c-1.1,0-2-0.9-2-2s0.9-2,2-2s2,0.9,2,2S60.3,97,59.2,97z M59.2,95L59.2,95z"/>
			<path class="st3" d="M67.2,97c-1.1,0-2-0.9-2-2s0.9-2,2-2s2,0.9,2,2S68.3,97,67.2,97z M67.2,95L67.2,95z"/>
			<path class="st3" d="M75.2,97c-1.1,0-2-0.9-2-2s0.9-2,2-2s2,0.9,2,2S76.3,97,75.2,97z M75.2,95L75.2,95z"/>
			<path class="st3" d="M83.2,97c-1.1,0-2-0.9-2-2s0.9-2,2-2s2,0.9,2,2S84.3,97,83.2,97z M83.2,95L83.2,95z"/>
			<path class="st3" d="M91.2,97c-1.1,0-2-0.9-2-2s0.9-2,2-2s2,0.9,2,2S92.3,97,91.2,97z M91.2,95L91.2,95z"/>
			<path class="st3" d="M99.2,97c-1.1,0-2-0.9-2-2s0.9-2,2-2s2,0.9,2,2S100.3,97,99.2,97z M99.2,95L99.2,95z"/>
			<path class="st3" d="M107.2,97c-1.1,0-2-0.9-2-2s0.9-2,2-2s2,0.9,2,2S108.3,97,107.2,97z M107.2,95L107.2,95z"/>
			<path class="st3" d="M115.2,97c-1.1,0-2-0.9-2-2s0.9-2,2-2s2,0.9,2,2S116.3,97,115.2,97z M115.2,95L115.2,95z"/>
			<path class="st3" d="M-0.8,103c-1.1,0-2-0.9-2-2s0.9-2,2-2s2,0.9,2,2S0.3,103-0.8,103z M-0.8,101L-0.8,101z"/>
			<path class="st3" d="M7.2,103c-1.1,0-2-0.9-2-2s0.9-2,2-2s2,0.9,2,2S8.3,103,7.2,103z M7.2,101L7.2,101z"/>
			<path class="st3" d="M15.2,103c-1.1,0-2-0.9-2-2s0.9-2,2-2s2,0.9,2,2S16.3,103,15.2,103z M15.2,101L15.2,101z"/>
			<path class="st3" d="M23.2,103c-1.1,0-2-0.9-2-2s0.9-2,2-2c1.1,0,2,0.9,2,2S24.3,103,23.2,103z M23.2,101L23.2,101z"/>
			<path class="st3" d="M31.2,103c-1.1,0-2-0.9-2-2s0.9-2,2-2s2,0.9,2,2S32.3,103,31.2,103z M31.2,101L31.2,101z"/>
			<path class="st3" d="M39.2,103c-1.1,0-2-0.9-2-2s0.9-2,2-2s2,0.9,2,2S40.3,103,39.2,103z M39.2,101L39.2,101z"/>
			<path class="st3" d="M47.2,103c-1.1,0-2-0.9-2-2s0.9-2,2-2s2,0.9,2,2S48.3,103,47.2,103z M47.2,101L47.2,101z"/>
			<path class="st3" d="M55.2,103c-1.1,0-2-0.9-2-2s0.9-2,2-2s2,0.9,2,2S56.3,103,55.2,103z M55.2,101L55.2,101z"/>
			<path class="st3" d="M63.2,103c-1.1,0-2-0.9-2-2s0.9-2,2-2s2,0.9,2,2S64.3,103,63.2,103z M63.2,101L63.2,101z"/>
			<path class="st3" d="M71.2,103c-1.1,0-2-0.9-2-2s0.9-2,2-2s2,0.9,2,2S72.3,103,71.2,103z M71.2,101L71.2,101z"/>
			<path class="st3" d="M79.2,103c-1.1,0-2-0.9-2-2s0.9-2,2-2s2,0.9,2,2S80.3,103,79.2,103z M79.2,101L79.2,101z"/>
			<path class="st3" d="M87.2,103c-1.1,0-2-0.9-2-2s0.9-2,2-2s2,0.9,2,2S88.3,103,87.2,103z M87.2,101L87.2,101z"/>
			<path class="st3" d="M95.2,103c-1.1,0-2-0.9-2-2s0.9-2,2-2s2,0.9,2,2S96.3,103,95.2,103z M95.2,101L95.2,101z"/>
			<path class="st3" d="M103.2,103c-1.1,0-2-0.9-2-2s0.9-2,2-2s2,0.9,2,2S104.3,103,103.2,103z M103.2,101L103.2,101z"/>
			<path class="st3" d="M111.2,103c-1.1,0-2-0.9-2-2s0.9-2,2-2s2,0.9,2,2S112.3,103,111.2,103z M111.2,101L111.2,101z"/>
			<path class="st3" d="M119.2,103c-1.1,0-2-0.9-2-2s0.9-2,2-2s2,0.9,2,2S120.3,103,119.2,103z M119.2,101L119.2,101z"/>
			<path class="st3" d="M-4.8,109c-1.1,0-2-0.9-2-2s0.9-2,2-2s2,0.9,2,2S-3.7,109-4.8,109z M-4.8,107L-4.8,107z"/>
			<path class="st3" d="M3.2,109c-1.1,0-2-0.9-2-2s0.9-2,2-2s2,0.9,2,2S4.3,109,3.2,109z M3.2,107L3.2,107z"/>
			<path class="st3" d="M11.2,109c-1.1,0-2-0.9-2-2s0.9-2,2-2s2,0.9,2,2S12.3,109,11.2,109z M11.2,107L11.2,107z"/>
			<path class="st3" d="M19.2,109c-1.1,0-2-0.9-2-2s0.9-2,2-2s2,0.9,2,2S20.3,109,19.2,109z M19.2,107L19.2,107z"/>
			<path class="st3" d="M27.2,109c-1.1,0-2-0.9-2-2s0.9-2,2-2s2,0.9,2,2S28.3,109,27.2,109z M27.2,107L27.2,107z"/>
			<path class="st3" d="M35.2,109c-1.1,0-2-0.9-2-2s0.9-2,2-2s2,0.9,2,2S36.3,109,35.2,109z M35.2,107L35.2,107z"/>
			<path class="st3" d="M43.2,109c-1.1,0-2-0.9-2-2s0.9-2,2-2s2,0.9,2,2S44.3,109,43.2,109z M43.2,107L43.2,107z"/>
			<path class="st3" d="M51.2,109c-1.1,0-2-0.9-2-2s0.9-2,2-2s2,0.9,2,2S52.3,109,51.2,109z M51.2,107L51.2,107z"/>
			<path class="st3" d="M59.2,109c-1.1,0-2-0.9-2-2s0.9-2,2-2s2,0.9,2,2S60.3,109,59.2,109z M59.2,107L59.2,107z"/>
			<path class="st3" d="M67.2,109c-1.1,0-2-0.9-2-2s0.9-2,2-2s2,0.9,2,2S68.3,109,67.2,109z M67.2,107L67.2,107z"/>
			<path class="st3" d="M75.2,109c-1.1,0-2-0.9-2-2s0.9-2,2-2s2,0.9,2,2S76.3,109,75.2,109z M75.2,107L75.2,107z"/>
			<path class="st3" d="M83.2,109c-1.1,0-2-0.9-2-2s0.9-2,2-2s2,0.9,2,2S84.3,109,83.2,109z M83.2,107L83.2,107z"/>
			<path class="st3" d="M91.2,109c-1.1,0-2-0.9-2-2s0.9-2,2-2s2,0.9,2,2S92.3,109,91.2,109z M91.2,107L91.2,107z"/>
			<path class="st3" d="M99.2,109c-1.1,0-2-0.9-2-2s0.9-2,2-2s2,0.9,2,2S100.3,109,99.2,109z M99.2,107L99.2,107z"/>
			<path class="st3" d="M107.2,109c-1.1,0-2-0.9-2-2s0.9-2,2-2s2,0.9,2,2S108.3,109,107.2,109z M107.2,107L107.2,107z"/>
			<path class="st3" d="M115.2,109c-1.1,0-2-0.9-2-2s0.9-2,2-2s2,0.9,2,2S116.3,109,115.2,109z M115.2,107L115.2,107z"/>
			<path class="st3" d="M-0.8,115c-1.1,0-2-0.9-2-2s0.9-2,2-2s2,0.9,2,2S0.3,115-0.8,115z M-0.8,113L-0.8,113z"/>
			<path class="st3" d="M7.2,115c-1.1,0-2-0.9-2-2s0.9-2,2-2s2,0.9,2,2S8.3,115,7.2,115z M7.2,113L7.2,113z"/>
			<path class="st3" d="M15.2,115c-1.1,0-2-0.9-2-2s0.9-2,2-2s2,0.9,2,2S16.3,115,15.2,115z M15.2,113L15.2,113z"/>
			<path class="st3" d="M23.2,115c-1.1,0-2-0.9-2-2s0.9-2,2-2c1.1,0,2,0.9,2,2S24.3,115,23.2,115z M23.2,113L23.2,113z"/>
			<path class="st3" d="M31.2,115c-1.1,0-2-0.9-2-2s0.9-2,2-2s2,0.9,2,2S32.3,115,31.2,115z M31.2,113L31.2,113z"/>
			<path class="st3" d="M39.2,115c-1.1,0-2-0.9-2-2s0.9-2,2-2s2,0.9,2,2S40.3,115,39.2,115z M39.2,113L39.2,113z"/>
			<path class="st3" d="M47.2,115c-1.1,0-2-0.9-2-2s0.9-2,2-2s2,0.9,2,2S48.3,115,47.2,115z M47.2,113L47.2,113z"/>
			<path class="st3" d="M55.2,115c-1.1,0-2-0.9-2-2s0.9-2,2-2s2,0.9,2,2S56.3,115,55.2,115z M55.2,113L55.2,113z"/>
			<path class="st3" d="M63.2,115c-1.1,0-2-0.9-2-2s0.9-2,2-2s2,0.9,2,2S64.3,115,63.2,115z M63.2,113L63.2,113z"/>
			<path class="st3" d="M71.2,115c-1.1,0-2-0.9-2-2s0.9-2,2-2s2,0.9,2,2S72.3,115,71.2,115z M71.2,113L71.2,113z"/>
			<path class="st3" d="M79.2,115c-1.1,0-2-0.9-2-2s0.9-2,2-2s2,0.9,2,2S80.3,115,79.2,115z M79.2,113L79.2,113z"/>
			<path class="st3" d="M87.2,115c-1.1,0-2-0.9-2-2s0.9-2,2-2s2,0.9,2,2S88.3,115,87.2,115z M87.2,113L87.2,113z"/>
			<path class="st3" d="M95.2,115c-1.1,0-2-0.9-2-2s0.9-2,2-2s2,0.9,2,2S96.3,115,95.2,115z M95.2,113L95.2,113z"/>
			<path class="st3" d="M103.2,115c-1.1,0-2-0.9-2-2s0.9-2,2-2s2,0.9,2,2S104.3,115,103.2,115z M103.2,113L103.2,113z"/>
			<path class="st3" d="M111.2,115c-1.1,0-2-0.9-2-2s0.9-2,2-2s2,0.9,2,2S112.3,115,111.2,115z M111.2,113L111.2,113z"/>
			<path class="st3" d="M119.2,115c-1.1,0-2-0.9-2-2s0.9-2,2-2s2,0.9,2,2S120.3,115,119.2,115z M119.2,113L119.2,113z"/>
			<path class="st3" d="M-4.8,121c-1.1,0-2-0.9-2-2s0.9-2,2-2s2,0.9,2,2S-3.7,121-4.8,121z M-4.8,119L-4.8,119z"/>
			<path class="st3" d="M3.2,121c-1.1,0-2-0.9-2-2s0.9-2,2-2s2,0.9,2,2S4.3,121,3.2,121z M3.2,119L3.2,119z"/>
			<path class="st3" d="M11.2,121c-1.1,0-2-0.9-2-2s0.9-2,2-2s2,0.9,2,2S12.3,121,11.2,121z M11.2,119L11.2,119z"/>
			<path class="st3" d="M19.2,121c-1.1,0-2-0.9-2-2s0.9-2,2-2s2,0.9,2,2S20.3,121,19.2,121z M19.2,119L19.2,119z"/>
			<path class="st3" d="M27.2,121c-1.1,0-2-0.9-2-2s0.9-2,2-2s2,0.9,2,2S28.3,121,27.2,121z M27.2,119L27.2,119z"/>
			<path class="st3" d="M35.2,121c-1.1,0-2-0.9-2-2s0.9-2,2-2s2,0.9,2,2S36.3,121,35.2,121z M35.2,119L35.2,119z"/>
			<path class="st3" d="M43.2,121c-1.1,0-2-0.9-2-2s0.9-2,2-2s2,0.9,2,2S44.3,121,43.2,121z M43.2,119L43.2,119z"/>
			<path class="st3" d="M51.2,121c-1.1,0-2-0.9-2-2s0.9-2,2-2s2,0.9,2,2S52.3,121,51.2,121z M51.2,119L51.2,119z"/>
			<path class="st3" d="M59.2,121c-1.1,0-2-0.9-2-2s0.9-2,2-2s2,0.9,2,2S60.3,121,59.2,121z M59.2,119L59.2,119z"/>
			<path class="st3" d="M67.2,121c-1.1,0-2-0.9-2-2s0.9-2,2-2s2,0.9,2,2S68.3,121,67.2,121z M67.2,119L67.2,119z"/>
			<path class="st3" d="M75.2,121c-1.1,0-2-0.9-2-2s0.9-2,2-2s2,0.9,2,2S76.3,121,75.2,121z M75.2,119L75.2,119z"/>
			<path class="st3" d="M83.2,121c-1.1,0-2-0.9-2-2s0.9-2,2-2s2,0.9,2,2S84.3,121,83.2,121z M83.2,119L83.2,119z"/>
			<path class="st3" d="M91.2,121c-1.1,0-2-0.9-2-2s0.9-2,2-2s2,0.9,2,2S92.3,121,91.2,121z M91.2,119L91.2,119z"/>
			<path class="st3" d="M99.2,121c-1.1,0-2-0.9-2-2s0.9-2,2-2s2,0.9,2,2S100.3,121,99.2,121z M99.2,119L99.2,119z"/>
			<path class="st3" d="M107.2,121c-1.1,0-2-0.9-2-2s0.9-2,2-2s2,0.9,2,2S108.3,121,107.2,121z M107.2,119L107.2,119z"/>
			<path class="st3" d="M115.2,121c-1.1,0-2-0.9-2-2s0.9-2,2-2s2,0.9,2,2S116.3,121,115.2,121z M115.2,119L115.2,119z"/>
			<path class="st3" d="M-0.8,127c-1.1,0-2-0.9-2-2s0.9-2,2-2s2,0.9,2,2S0.3,127-0.8,127z M-0.8,125L-0.8,125z"/>
			<path class="st3" d="M7.2,127c-1.1,0-2-0.9-2-2s0.9-2,2-2s2,0.9,2,2S8.3,127,7.2,127z M7.2,125L7.2,125z"/>
			<path class="st3" d="M15.2,127c-1.1,0-2-0.9-2-2s0.9-2,2-2s2,0.9,2,2S16.3,127,15.2,127z M15.2,125L15.2,125z"/>
			<path class="st3" d="M23.2,127c-1.1,0-2-0.9-2-2s0.9-2,2-2c1.1,0,2,0.9,2,2S24.3,127,23.2,127z M23.2,125L23.2,125z"/>
			<path class="st3" d="M31.2,127c-1.1,0-2-0.9-2-2s0.9-2,2-2s2,0.9,2,2S32.3,127,31.2,127z M31.2,125L31.2,125z"/>
			<path class="st3" d="M39.2,127c-1.1,0-2-0.9-2-2s0.9-2,2-2s2,0.9,2,2S40.3,127,39.2,127z M39.2,125L39.2,125z"/>
			<path class="st3" d="M47.2,127c-1.1,0-2-0.9-2-2s0.9-2,2-2s2,0.9,2,2S48.3,127,47.2,127z M47.2,125L47.2,125z"/>
			<path class="st3" d="M55.2,127c-1.1,0-2-0.9-2-2s0.9-2,2-2s2,0.9,2,2S56.3,127,55.2,127z M55.2,125L55.2,125z"/>
			<path class="st3" d="M63.2,127c-1.1,0-2-0.9-2-2s0.9-2,2-2s2,0.9,2,2S64.3,127,63.2,127z M63.2,125L63.2,125z"/>
			<path class="st3" d="M71.2,127c-1.1,0-2-0.9-2-2s0.9-2,2-2s2,0.9,2,2S72.3,127,71.2,127z M71.2,125L71.2,125z"/>
			<path class="st3" d="M79.2,127c-1.1,0-2-0.9-2-2s0.9-2,2-2s2,0.9,2,2S80.3,127,79.2,127z M79.2,125L79.2,125z"/>
			<path class="st3" d="M87.2,127c-1.1,0-2-0.9-2-2s0.9-2,2-2s2,0.9,2,2S88.3,127,87.2,127z M87.2,125L87.2,125z"/>
			<path class="st3" d="M95.2,127c-1.1,0-2-0.9-2-2s0.9-2,2-2s2,0.9,2,2S96.3,127,95.2,127z M95.2,125L95.2,125z"/>
			<path class="st3" d="M103.2,127c-1.1,0-2-0.9-2-2s0.9-2,2-2s2,0.9,2,2S104.3,127,103.2,127z M103.2,125L103.2,125z"/>
			<path class="st3" d="M111.2,127c-1.1,0-2-0.9-2-2s0.9-2,2-2s2,0.9,2,2S112.3,127,111.2,127z M111.2,125L111.2,125z"/>
			<path class="st3" d="M119.2,127c-1.1,0-2-0.9-2-2s0.9-2,2-2s2,0.9,2,2S120.3,127,119.2,127z M119.2,125L119.2,125z"/>
		</g>
	</g>
</g>
<g>
	<defs>
		<path id="SVGID_3_" d="M112.3,64.9c0,31-25.1,56.1-56.1,56.1S0,95.9,0,64.9l0,0C0,33.8,25.2,0,56.2,0S112.3,33.8,112.3,64.9z"/>
	</defs>
	<clipPath id="SVGID_4_">
		<use xlink:href="#SVGID_3_"  style="overflow:visible;"/>
	</clipPath>
	<g class="st4">
		<path class="st5" d="M71.4,76c4.4,0,8.8-0.7,13-1.9c7-2,11-9.3,9.1-16.2c-0.1-0.2-0.1-0.4-0.2-0.5c-3.5-10.9-0.7-19.6-3.2-30.3
			c-3.3-14.3-16-25-33.1-25S26.5,12.3,23.7,27c-2,10.6,0.7,19.3-2.6,29.9c-2.3,7,1.5,14.4,8.5,16.7c0.1,0,0.1,0,0.2,0.1
			c4,1.4,8.1,2.1,12.2,2.4H71.4z"/>
		<g class="st0">
			<path class="st6" d="M84.4,69.1c-4.2,1.2-8.6,1.9-13,1.9L42,71c-4.2-0.2-8.3-1-12.3-2.3c-4.7-1.4-8.2-5.3-9.1-10.2
				c-1.3,6.6,2.6,13.1,9.1,15.1c4,1.4,8.1,2.2,12.3,2.4h29.4c4.4,0,8.8-0.7,13-1.9C91,72.2,95,65.7,93.7,59
				C92.8,63.8,89.2,67.8,84.4,69.1z"/>
		</g>
		<g class="st0">
			<path class="st7" d="M91.2,41.8L91.2,41.8c0.1-4.8,0.1-9.6-1.1-14.9C86.8,12.7,74.2,2,57.1,2S26.5,12.3,23.7,27
				c-0.8,4.7-1,9.5-0.8,14.2c0-3.1,0.3-6.2,0.8-9.2C26.5,17.2,40,7,57.1,7s29.7,10.7,33.1,24.9C90.9,35.2,91.2,38.5,91.2,41.8z"/>
		</g>
		<path class="st3" d="M43.8,77L43.8,77c-4.9-0.2-9.7-1-14.4-2.4c-3.6-1.1-6.6-3.5-8.4-6.9c-1.8-3.4-2.2-7.5-1-11.2
			c1.8-5.8,1.8-11,1.8-16.5c-0.2-4.5,0.1-9,0.9-13.4C25.6,11.6,39.7,1,57.1,1c16.8,0,30.4,10.3,34,25.7c0.9,4.6,1.3,9.3,1.2,14
			c0,5.4,0.1,10.5,1.9,16.3c1.2,3.7,0.8,7.8-1,11.2c-1.8,3.4-4.9,5.8-8.6,6.8c-4.9,1.3-10,2-15.1,2c-0.6,0-1-0.4-1-1s0.4-1,1-1l0,0
			c4.9,0,9.8-0.7,14.6-1.9c3.1-0.9,5.8-3,7.3-5.8c1.6-3,1.9-6.4,0.9-9.6c-2-6.1-2-11.6-2-16.9c0.1-4.5-0.3-9.1-1.2-13.5
			C85.8,12.7,72.9,3,57.1,3c-16.4,0-29.7,9.9-32.4,24.1c-0.7,4.3-1,8.7-0.8,13c0,5.4,0.1,10.9-1.9,17.1c-1,3.2-0.7,6.7,0.9,9.6
			c1.5,2.8,4.1,5,7.2,5.9c4.5,1.3,9.1,2.1,13.8,2.3c0.6,0,1,0.4,1,1S44.4,77,43.8,77L43.8,77z"/>
		<path class="st8" d="M77.5,80.7L77.5,80.7C76.1,84.5,68,90,57.2,90S38.9,85,37,80.8v-0.1c1.5-0.9,3-1.6,4.5-2.2
			c2-0.9,3.3-2.9,3.3-5.1c0-0.8-0.2-1.7-0.5-2.4c8,4.6,17.8,4.6,25.8,0c-1.3,2.8-0.1,6.2,2.8,7.5C74.5,79.1,76,79.8,77.5,80.7z"/>
		<g class="st0">
			<path class="st6" d="M57.2,80.5c4.8,0,9.2-3.3,12.8-5.8c-0.6-1.3-0.6-2.8,0-4.1H44.3c0.6,1.3,0.7,2.8,0.1,4.1
				C48,77.2,52.4,80.5,57.2,80.5z"/>
		</g>
		<path class="st9" d="M80.5,123H20.6v-13.4c0-11.9,6.3-22.9,16.6-29c2.5,4.9,10.3,9.4,20.2,9.4c8.4,0,16.8-3.8,19.8-9.3
			c4.3,2.6,8,6,10.8,10.2c3.8,5.5,5.8,12.1,5.8,18.8V123H80.5z"/>
		<g class="st0">
			<path class="st7" d="M77.2,84.7c4.3,2.6,8,6,10.8,10.2c3.8,5.5,5.8,12.1,5.8,18.8v-4c0-6.7-2-13.2-5.8-18.8
				c-2.8-4.2-6.5-7.6-10.8-10.2V84.7z"/>
		</g>
		<g class="st0">
			<path class="st7" d="M37.2,80.7c-10.3,6.1-16.6,17.1-16.6,29v4c0-11.9,6.3-22.9,16.6-29V80.7z"/>
		</g>
		<path class="st3" d="M20.2,124c-0.6,0-1-0.4-1-1v-13.4c0-12.2,6.4-23.5,16.9-29.8c1.5-0.9,3-1.7,4.5-2.3c2.2-1.5,3.1-4.3,2.2-6.8
			c-0.2-0.5,0-1.1,0.6-1.3s1.1,0,1.3,0.6c1.3,3.5,0,7.4-3.2,9.3c-1.5,0.6-3,1.4-4.3,2.2c-9.8,6-15.9,16.6-15.9,28.1V123
			C21.2,123.6,20.7,124,20.2,124z"/>
		<path class="st3" d="M94.2,124c-0.6,0-1-0.4-1-1v-13.4c0-6.5-1.9-12.8-5.6-18.2c-3.7-5.4-8.8-9.6-14.9-12.1
			c-3.3-1.8-4.8-5.8-3.3-9.3c0.2-0.5,0.7-0.8,1.3-0.6c0.5,0.2,0.8,0.7,0.6,1.3c0,0,0,0.1,0,0.1c-1.1,2.5-0.1,5.4,2.2,6.7
			c1.6,0.7,3.2,1.4,4.7,2.3c4.4,2.6,8.2,6.2,11.1,10.5c3.9,5.7,5.9,12.4,5.9,19.3V123C95.2,123.6,94.7,124,94.2,124z"/>
		<path class="st3" d="M34.2,124c-0.6,0-1-0.4-1-1v-13c0-4.7,0.8-8,2.4-10.3c0.2-0.5,0.8-0.7,1.3-0.5c0.5,0.2,0.7,0.8,0.5,1.3
			c-0.1,0.1-0.1,0.2-0.2,0.3c-1.4,2-2,4.9-2,9.1v13C35.2,123.5,34.7,124,34.2,124C34.2,124,34.2,124,34.2,124z"/>
		<path class="st3" d="M80.2,124c-0.6,0-1-0.4-1-1v-13c0-4.3-0.6-7.2-2-9.1c-0.3-0.4-0.3-1.1,0.1-1.4c0.4-0.3,1.1-0.3,1.4,0.1
			c0,0,0.1,0.1,0.1,0.1c1.6,2.3,2.4,5.5,2.4,10.3v13C81.2,123.6,80.7,124,80.2,124z"/>
		<g class="st0">
			<rect x="46.9" y="88" class="st10" width="19.6" height="7.2"/>
		</g>
		<path class="st9" d="M44.4,93.3l-11.5-8.2c-1.1-0.8-1.4-2.3-0.6-3.4c0.2-0.2,0.4-0.4,0.6-0.6l7.1-5.3l17.1,12.3l-6.9,5.2
			C48.5,94.6,46.1,94.6,44.4,93.3z"/>
		<g class="st0">
			<path class="st7" d="M32.9,85.1l0.6,0.4l6.5-4.9l13.9,9.9l3.3-2.5L40,75.8l-7.1,5.3c-1.1,0.8-1.3,2.3-0.5,3.4
				C32.5,84.8,32.7,85,32.9,85.1z"/>
		</g>
		<path class="st3" d="M47.3,95.3c-1.2,0-2.4-0.4-3.4-1.1l-11.5-8.2c-1.6-1.1-1.9-3.3-0.8-4.8c0.2-0.3,0.5-0.5,0.7-0.8l7.1-5.4
			c0.4-0.3,0.8-0.3,1.2,0l17.2,12.3c0.4,0.3,0.5,1,0.2,1.4c-0.1,0.1-0.1,0.2-0.2,0.2l-6.9,5.2C49.8,94.8,48.5,95.3,47.3,95.3z
			 M40,77l-6.5,5c-0.6,0.5-0.8,1.4-0.3,2c0.1,0.1,0.2,0.2,0.3,0.3L45,92.6l0,0c1.4,1,3.3,1,4.6-0.1l5.8-4.4L40,77z"/>
		<path class="st9" d="M69.9,93.2l11.5-8.2c1.1-0.8,1.4-2.3,0.6-3.4c-0.2-0.2-0.4-0.4-0.6-0.6l-7.1-5.3L57.2,87.9l6.9,5.2
			C65.8,94.4,68.2,94.4,69.9,93.2z"/>
		<g class="st0">
			<path class="st7" d="M74.3,80.7l6.5,4.9l0.6-0.4c1.1-0.8,1.4-2.3,0.6-3.4c-0.2-0.2-0.4-0.4-0.6-0.6l-7.1-5.3L57.2,88.1l3.3,2.5
				L74.3,80.7z"/>
		</g>
		<path class="st3" d="M67,95.3c-1.3,0-2.5-0.4-3.5-1.2l-6.9-5.2c-0.4-0.3-0.5-1-0.2-1.4c0.1-0.1,0.1-0.2,0.2-0.2L73.7,75
			c0.4-0.3,0.8-0.3,1.2,0l7.1,5.3c1.5,1.1,1.8,3.3,0.7,4.8c-0.2,0.3-0.5,0.5-0.8,0.7l-11.5,8.2l0,0C69.5,94.9,68.3,95.3,67,95.3z
			 M58.8,88.1l5.8,4.4c1.4,1,3.2,1,4.6,0.1l0,0l11.5-8.2c0.6-0.5,0.8-1.4,0.3-2C81.1,82.2,81,82,80.8,82l-6.5-5L58.8,88.1z"/>
		<path class="st3" d="M61.7,99c-0.8,0-1.5-0.7-1.5-1.5s0.7-1.5,1.5-1.5s1.5,0.7,1.5,1.5S62.5,99,61.7,99z M61.7,97
			c-0.3,0-0.5,0.2-0.5,0.5s0.2,0.5,0.5,0.5s0.5-0.2,0.5-0.5S61.9,97,61.7,97z"/>
		<path class="st3" d="M61.7,106c-0.8,0-1.5-0.7-1.5-1.5s0.7-1.5,1.5-1.5s1.5,0.7,1.5,1.5S62.5,106,61.7,106z M61.7,104
			c-0.3,0-0.5,0.2-0.5,0.5s0.2,0.5,0.5,0.5s0.5-0.2,0.5-0.5S61.9,104,61.7,104z"/>
		<path class="st3" d="M61.7,113c-0.8,0-1.5-0.7-1.5-1.5s0.7-1.5,1.5-1.5s1.5,0.7,1.5,1.5S62.5,113,61.7,113z M61.7,111
			c-0.3,0-0.5,0.2-0.5,0.5s0.2,0.5,0.5,0.5s0.5-0.2,0.5-0.5S61.9,111,61.7,111z"/>
		<path class="st3" d="M61.7,120c-0.8,0-1.5-0.7-1.5-1.5s0.7-1.5,1.5-1.5s1.5,0.7,1.5,1.5S62.5,120,61.7,120z M61.7,118
			c-0.3,0-0.5,0.2-0.5,0.5s0.2,0.5,0.5,0.5s0.5-0.2,0.5-0.5S61.9,118,61.7,118z"/>
		<circle class="st3" cx="61.7" cy="97.5" r="1"/>
		<circle class="st3" cx="61.7" cy="104.5" r="1"/>
		<circle class="st3" cx="61.7" cy="111.5" r="1"/>
		<circle class="st3" cx="61.7" cy="118.5" r="1"/>
		<path class="st3" d="M57.2,124c-0.6,0-1-0.4-1-1V89c0-0.6,0.4-1,1-1s1,0.4,1,1v34C58.2,123.6,57.7,124,57.2,124z"/>
		<path class="st11" d="M32.2,32c0-28,49.9-28,49.9,0v17c0,8.9-4.8,17.2-12.5,21.7l-5.8,3.4c-4.1,2.4-9.2,2.4-13.3,0l-5.8-3.4
			C36.9,66.2,32.2,58,32.2,49.1V32z"/>
		<g class="st0">
			<path class="st6" d="M82.2,44.1c0,8.9-4.8,17.2-12.5,21.7l-5.8,3.4c-4.1,2.4-9.2,2.4-13.3,0l-5.8-3.4
				c-7.7-4.5-12.5-12.7-12.5-21.7v4.9c0,8.9,4.8,17.2,12.5,21.6l5.8,3.4c4.1,2.4,9.2,2.4,13.3,0l5.8-3.4
				c7.7-4.5,12.5-12.8,12.5-21.7V44.1z"/>
		</g>
		<path class="st3" d="M57.1,76.9c-2.5,0-5-0.7-7.2-2l-5.8-3.4c-8-4.7-12.9-13.2-13-22.5V32l0,0c-0.1-6.5,2.9-12.7,8.2-16.5
			c5.2-3.7,11.4-5.6,17.8-5.5c6.3-0.1,12.6,1.8,17.8,5.5c5.3,3.8,8.3,10,8.2,16.5v17c-0.1,9.3-5,17.8-13,22.5L64.2,75
			C62.1,76.3,59.6,76.9,57.1,76.9z M33.2,32v17.1c0.1,8.5,4.6,16.4,12,20.7l5.8,3.4c3.8,2.2,8.5,2.2,12.3,0l5.8-3.4
			c7.4-4.3,11.9-12.2,12-20.8V32c0.1-5.9-2.6-11.5-7.4-15c-4.8-3.4-10.6-5.2-16.5-5C45.6,12,33.2,18.3,33.2,32z"/>
		<g class="st0">
			<circle class="st12" cx="42.7" cy="56.5" r="4.5"/>
		</g>
		<g class="st0">
			<circle class="st12" cx="71.7" cy="56.5" r="4.5"/>
		</g>
		<path class="st3" d="M57.2,53.5c-0.9-0.1-1.8-0.4-2.5-0.9c-0.5-0.3-0.6-0.9-0.3-1.4s0.9-0.6,1.4-0.3l0,0c0.4,0.3,0.9,0.5,1.4,0.6
			c0.5-0.1,1-0.3,1.4-0.6c0.5-0.3,1.1-0.2,1.4,0.3s0.2,1.1-0.3,1.4l0,0C58.9,53.1,58.1,53.4,57.2,53.5z"/>
		<path class="st3" d="M39.4,40c-0.6,0-1-0.5-1-1c0-0.3,0.1-0.5,0.3-0.7c1.8-1.8,5.8-1.1,9-0.6c0.8,0.1,1.6,0.2,2.4,0.3
			c0.6,0,1,0.4,1,1s-0.4,1-1,1c-0.9,0-1.8-0.2-2.7-0.3c-2.2-0.3-6.3-1-7.3,0C40,39.9,39.7,40,39.4,40z"/>
		<path class="st3" d="M74.8,40c-0.3,0-0.5-0.1-0.7-0.3c-1.6-1.5-7.7-1.5-9.2,0c-0.4,0.4-1,0.4-1.4,0s-0.4-1,0-1.4
			c2.4-2.3,9.7-2.3,12,0c0.4,0.4,0.4,1,0,1.4C75.3,39.9,75,40,74.8,40L74.8,40z"/>
		<path class="st3" d="M74.2,44h-9c-0.6,0-1-0.4-1-1s0.4-1,1-1h9c0.6,0,1,0.4,1,1S74.7,44,74.2,44z"/>
		<path class="st3" d="M49.2,44h-9c-0.6,0-1-0.4-1-1s0.4-1,1-1h9c0.6,0,1,0.4,1,1S49.7,44,49.2,44z"/>
		<circle class="st3" cx="45.7" cy="45" r="1.5"/>
		<path class="st3" d="M45.7,47.5c-1.4,0-2.5-1.1-2.5-2.5s1.1-2.5,2.5-2.5s2.5,1.1,2.5,2.5S47,47.5,45.7,47.5z M45.7,44.5
			c-0.3,0-0.5,0.2-0.5,0.5s0.2,0.5,0.5,0.5s0.5-0.2,0.5-0.5S45.9,44.5,45.7,44.5z"/>
		<circle class="st3" cx="68.7" cy="45" r="1.5"/>
		<path class="st3" d="M68.7,47.5c-1.4,0-2.5-1.1-2.5-2.5s1.1-2.5,2.5-2.5s2.5,1.1,2.5,2.5S70,47.5,68.7,47.5z M68.7,44.5
			c-0.3,0-0.5,0.2-0.5,0.5s0.2,0.5,0.5,0.5s0.5-0.2,0.5-0.5S68.9,44.5,68.7,44.5z"/>
		<path class="st3" d="M57.3,62.8c-3,0-5.8-1.2-7-3.2c-0.3-0.4-0.2-1.1,0.2-1.4c0.4-0.3,1.1-0.2,1.4,0.2c0,0,0.1,0.1,0.1,0.1
			c0.8,1.3,3,2.3,5.3,2.3c1.1,0,2.2-0.2,3.3-0.7c0.5-0.3,1.1-0.1,1.4,0.3c0.3,0.5,0.1,1.1-0.3,1.4c-0.1,0-0.1,0.1-0.2,0.1
			C60.1,62.6,58.7,62.9,57.3,62.8z"/>
		<path class="st3" d="M74.2,60.7h-3c-0.6,0-1-0.4-1-1s0.4-1,1-1h3c3.9,0,7-3.1,7-7v-5.5c0-0.6,0.4-1,1-1s1,0.4,1,1v5.5
			C83.2,56.6,79.1,60.7,74.2,60.7C74.2,60.7,74.2,60.7,74.2,60.7z"/>
		<path class="st13" d="M67,57.2h2.1c1.1,0,2,0.9,2,2v0.9c0,1.1-0.9,2-2,2H67c-1.1,0-2-0.9-2-2v-0.9C65,58.1,65.9,57.2,67,57.2z"/>
		<path class="st3" d="M69.2,63.1H67c-1.7,0-3-1.3-3-3l0,0v-0.9c0-1.7,1.3-3,3-3h2.2c1.7,0,3,1.3,3,3v0.9
			C72.2,61.8,70.8,63.1,69.2,63.1L69.2,63.1z M67,58.2c-0.6,0-1,0.4-1,1v0.9c0,0.6,0.4,1,1,1h2.1c0.6,0,1-0.4,1-1v-0.9
			c0-0.6-0.4-1-1-1H67z"/>
		<g class="st0">
			<path class="st6" d="M32.2,32c0,0,21.9,9,41-8c2.9,10.4,9,8.5,9,8.5v-3.7c0,0-6.3,2.6-9.2-7.8c-18.8,16-40.8,7-40.8,7V32z"/>
		</g>
		<path class="st5" d="M32.2,27.9c0,0,21.6,9.6,40.7-7.5c0,9.8,9.3,8.6,9.3,8.6l2.3-0.2C82,3.4,34.9,2.7,30.2,27L32.2,27.9z"/>
		<path class="st3" d="M46.8,31.5c-5.1,0-10.2-0.9-15-2.7l-2-0.9c-0.5-0.2-0.7-0.8-0.5-1.3c0.2-0.5,0.8-0.7,1.3-0.5l2,0.9
			c0.2,0.1,21.3,9.1,39.7-7.3c0.4-0.4,1-0.3,1.4,0.1c0.2,0.2,0.3,0.4,0.3,0.7c0,2.7,0.7,4.7,2.2,6c1.7,1.3,3.8,1.8,5.9,1.6l1.3-0.1
			c0.5,0,1,0.4,1.1,0.9c0,0.5-0.4,1-0.9,1.1L82.2,30c-0.1,0-4.4,0.5-7.4-2.1c-1.5-1.4-2.5-3.3-2.7-5.4C64.9,28.4,56,31.6,46.8,31.5z
			"/>
		<path class="st3" d="M82.1,33c-0.6,0-1-0.4-1-1c0-0.9-0.1-1.9-0.2-2.8c-0.1-0.6,0.3-1.1,0.9-1.1s1.1,0.3,1.1,0.9
			c0.1,1,0.2,2.1,0.2,3.1C83.1,32.6,82.6,33,82.1,33C82.1,33,82.1,33,82.1,33z"/>
		<path class="st3" d="M32.2,33c-0.6,0-1-0.4-1-1c0-1.3,0.1-2.7,0.3-4c0.1-0.6,0.6-0.9,1.2-0.8s0.9,0.6,0.8,1.2
			c-0.2,1.2-0.3,2.4-0.3,3.6C33.2,32.6,32.7,33,32.2,33z"/>
		<path class="st13" d="M82.2,36h0.9c2.2,0,4,1.8,4,4v7c0,2.2-1.8,4-4,4h-0.9l0,0L82.2,36L82.2,36z"/>
		<g class="st0">
			<path class="st7" d="M83.2,36.1h-1v3.7h1c2.2,0,3.9,2.2,3.9,4.9V41C87.2,38.3,85.4,36.1,83.2,36.1z"/>
		</g>
		<path class="st3" d="M83.2,52h-1c-0.6,0-1-0.4-1-1V36c0-0.6,0.4-1,1-1h1c2.8,0,5,2.2,5,5v7C88.2,49.8,85.9,52,83.2,52z M83.2,50
			L83.2,50z M83.2,37v13c1.7,0,3-1.3,3-3v-7C86.2,38.3,84.8,37,83.2,37z"/>
		<path class="st13" d="M32.2,51h-1c-2.2,0-4-1.8-4-4v-7c0-2.2,1.8-4,4-4h1l0,0V51L32.2,51z"/>
		<g class="st0">
			<path class="st7" d="M31.2,36h1v3.7h-1c-2.2,0-3.9,2.2-3.9,4.9v-3.7C27.2,38.2,29,36,31.2,36z"/>
		</g>
		<path class="st3" d="M32.2,52h-1c-2.8,0-5-2.2-5-5v-7c0-2.8,2.2-5,5-5h1c0.6,0,1,0.4,1,1v15C33.2,51.6,32.7,52,32.2,52z M31.2,37
			c-1.7,0-3,1.3-3,3v7c0,1.7,1.3,3,3,3V37z"/>
	</g>
</g>
</svg>
