<svg xmlns="http://www.w3.org/2000/svg" width="219.385" height="30" viewBox="0 0 219.385 30">
  <path id="Subtraction_14" data-name="Subtraction 14" d="M797.095-1204c-12.753-.677-16.609-11.364-17.5-14.7-.7-2.632-1.179-5.241-1.561-7.339l-.005-.028-.005-.033c-.2-1.082-.366-2.015-.529-2.734a6.814,6.814,0,0,0-5.231-5.17H991.647a6.594,6.594,0,0,0-5.185,5.17c-.167.74-.345,1.722-.534,2.761l0,.008c-.382,2.1-.857,4.719-1.566,7.365-.89,3.332-4.746,14.019-17.5,14.7Z" transform="translate(-772.262 1234)"/>
</svg>
