<?xml version="1.0" encoding="utf-8"?>
<!-- Generator: Adobe Illustrator 23.0.1, SVG Export Plug-In . SVG Version: 6.00 Build 0)  -->
<svg version="1.1" id="圖層_1" xmlns="http://www.w3.org/2000/svg" xmlns:xlink="http://www.w3.org/1999/xlink" x="0px" y="0px"
	 viewBox="0 0 115.1 114.7" style="enable-background:new 0 0 115.1 114.7;" xml:space="preserve">
<g id="工作區域參考線_2_">
</g>
<g id="工作區域參考線_1_">
</g>
<g id="工作區域參考線">
</g>
<g>
	<g>
		<path d="M108.7,31l0.3-0.4l0,0l6.5-8.9h-12h-0.8C91.8,8.1,75.1,0,57.7,0C26.1,0,0.4,25.7,0.4,57.4c0,9.1,2.2,18.1,6.3,26.2
			l0.1,0.2L0,93h12h0.8c10.9,13.6,27.5,21.7,44.9,21.7c31.6,0,57.4-25.7,57.4-57.4c0-9.1-2.2-18.1-6.3-26.2L108.7,31z M57.7,111.5
			C42,111.5,27.3,104.8,17,93h35.1V51.9L35,75.4h4l9.9-13.6v27.9H13.7h-1.5h-1H9.7H6.4l1.8-2.5l0,0l2.1-2.9l0,0l41.8-57.2v-5.5
			L9,80.8c-3.5-7.3-5.3-15.2-5.3-23.4C3.7,27.6,28,3.3,57.8,3.3c15.7,0,30.4,6.7,40.7,18.5H63.4v41.1l17.1-23.5h-4L66.6,53V25h35.2
			h1.5h1h1.5h3.3l-1.8,2.5l0,0l-1,1.4L63.4,87.5V93l43.2-59c3.5,7.3,5.3,15.2,5.3,23.4C111.9,87.2,87.6,111.5,57.7,111.5z"/>
	</g>
</g>
</svg>
