<svg xmlns="http://www.w3.org/2000/svg" xmlns:xlink="http://www.w3.org/1999/xlink" viewBox="0 0 87 87"><defs><style>.cls-1{fill:url(#linear-gradient);}.cls-2{fill:#fff;}</style><linearGradient id="linear-gradient" x1="43.5" y1="87" x2="43.5" gradientUnits="userSpaceOnUse"><stop offset="0" stop-color="#55b943"/><stop offset="1" stop-color="#8bf586"/></linearGradient></defs><title>camera</title><g id="圖層_2" data-name="圖層 2"><g id="Layer_1" data-name="Layer 1"><rect class="cls-1" width="87" height="87" rx="19.97"/><path class="cls-2" d="M52,25H18a5,5,0,0,0-5,5V57a5,5,0,0,0,5,5H52a5,5,0,0,0,5-5V30A5,5,0,0,0,52,25ZM10,35.5v1a2,2,0,0,0,2,2v-5A2,2,0,0,0,10,35.5ZM74,29V58h2V29ZM59,48,72,58V29L59,38Z"/></g></g></svg>