<svg xmlns="http://www.w3.org/2000/svg" xmlns:xlink="http://www.w3.org/1999/xlink" viewBox="0 0 87 87"><defs><style>.cls-1{fill:url(#linear-gradient);}.cls-2{fill:#f7ce45;}</style><linearGradient id="linear-gradient" x1="43.5" y1="87" x2="43.5" gradientUnits="userSpaceOnUse"><stop offset="0" stop-color="#8f8f94"/><stop offset="1" stop-color="#e4e4e9"/></linearGradient></defs><title>camera_1</title><g id="圖層_2" data-name="圖層 2"><g id="Layer_1" data-name="Layer 1"><rect class="cls-1" width="87" height="87" rx="19.97"/><path d="M43.51,34A11.48,11.48,0,1,0,55,45.48,11.48,11.48,0,0,0,43.51,34ZM25,23.54a1,1,0,0,0-.95-1H20a1,1,0,0,0-.95,1L19,25H25Zm45.52,2.7H59.66a2.23,2.23,0,0,1-1.8-.93l-2.72-4A5,5,0,0,0,50.93,19H35.59a5,5,0,0,0-4.21,2.33l-2.5,4a2.24,2.24,0,0,1-1.81.93H16.55A4.56,4.56,0,0,0,12,30.78V61.36a4.72,4.72,0,0,0,4.71,4.7h53.6A4.72,4.72,0,0,0,75,61.36V30.78A4.56,4.56,0,0,0,70.47,26.24ZM43.5,59A13.5,13.5,0,1,1,57,45.5,13.49,13.49,0,0,1,43.5,59Z"/><path class="cls-2" d="M60,34a2,2,0,1,1,2-2A2,2,0,0,1,60,34Z"/></g></g></svg>