<svg xmlns="http://www.w3.org/2000/svg" viewBox="0 0 87 87"><defs><style>.cls-1{fill:#76d672;}.cls-2{fill:#fff;}</style></defs><title>cellular</title><g id="圖層_2" data-name="圖層 2"><g id="Layer_1" data-name="Layer 1"><rect class="cls-1" width="87" height="87" rx="19.97"/><path class="cls-2" d="M43.5,30a6,6,0,0,0-2,11.65V69.5a2,2,0,0,0,4,0V41.65A6,6,0,0,0,43.5,30Z"/><path class="cls-2" d="M30.5,35.5A10,10,0,0,1,33,28.86a2.43,2.43,0,0,0,0-3.36l-.13-.13a2.41,2.41,0,0,0-3.47.06A14.94,14.94,0,0,0,30,46.14a2.4,2.4,0,0,0,3.4,0L33.5,46a2.39,2.39,0,0,0,0-3.38A9.93,9.93,0,0,1,30.5,35.5Z"/><path class="cls-2" d="M20.5,35.5a17.85,17.85,0,0,1,5.19-12.6,2.52,2.52,0,0,0-.05-3.58h0a2.48,2.48,0,0,0-3.47,0A23,23,0,0,0,22,51.46a2.48,2.48,0,0,0,3.48,0,2.51,2.51,0,0,0,.08-3.56A17.87,17.87,0,0,1,20.5,35.5Z"/><path class="cls-2" d="M57.6,25.43a2.41,2.41,0,0,0-3.47-.06L54,25.5a2.43,2.43,0,0,0,0,3.36,10,10,0,0,1-.47,13.76,2.39,2.39,0,0,0,0,3.38l.14.14a2.4,2.4,0,0,0,3.4,0,14.94,14.94,0,0,0,.56-20.71Z"/><path class="cls-2" d="M64.84,19.33a2.48,2.48,0,0,0-3.47,0h0a2.52,2.52,0,0,0,0,3.58,17.89,17.89,0,0,1,.17,25,2.51,2.51,0,0,0,.08,3.56,2.48,2.48,0,0,0,3.48,0,23,23,0,0,0-.2-32.13Z"/></g></g></svg>