<svg xmlns="http://www.w3.org/2000/svg" xmlns:xlink="http://www.w3.org/1999/xlink" viewBox="0 0 87 87"><defs><style>.cls-1{fill:url(#linear-gradient);}.cls-2{fill:#fff;}</style><linearGradient id="linear-gradient" x1="43.5" y1="87" x2="43.5" gradientUnits="userSpaceOnUse"><stop offset="0" stop-color="#55b943"/><stop offset="1" stop-color="#8bf586"/></linearGradient></defs><title>chat</title><g id="圖層_2" data-name="圖層 2"><g id="Layer_1" data-name="Layer 1"><rect class="cls-1" width="87" height="87" rx="19.97"/><path class="cls-2" d="M43.5,15C26.1,15,12,26.86,12,41.5c0,9.38,5.8,17.62,14.54,22.33a.8.8,0,0,1,.42.79,8,8,0,0,1-2.9,5.5.8.8,0,0,0,.72,1.39,57.41,57.41,0,0,0,9.44-4.09,2.4,2.4,0,0,1,1.62-.22,36.92,36.92,0,0,0,7.66.8C60.9,68,75,56.14,75,41.5S60.9,15,43.5,15Z"/></g></g></svg>