<svg xmlns="http://www.w3.org/2000/svg" viewBox="0 0 87 87"><defs><style>.cls-1{fill:#8e8e93;}.cls-2{fill:#fff;}</style></defs><title>general</title><g id="圖層_2" data-name="圖層 2"><g id="Layer_1" data-name="Layer 1"><rect class="cls-1" width="87" height="87" rx="19.97"/><path class="cls-2" d="M75.43,53l-4.16-2.81A2.33,2.33,0,0,1,72,46.06l4.84-1.32c.07,0,.11-.06.17-.08,0-.39,0-.77,0-1.16,0-.63,0-1.25-.06-1.88a1.22,1.22,0,0,0-.17-.07L71.9,40.32a2.32,2.32,0,0,1-.78-4.14l4.1-2.91a.93.93,0,0,0,.14-.14c-.32-1-.67-1.91-1.07-2.83a1.21,1.21,0,0,0-.2,0l-5,.51A2.32,2.32,0,0,1,67,27.17L69.81,23a.89.89,0,0,0,.08-.17c-.63-.8-1.29-1.57-2-2.3a1.21,1.21,0,0,0-.18.05l-4.51,2.19A2.33,2.33,0,0,1,60,20.13l1.27-4.85a1.37,1.37,0,0,0,0-.19c-.85-.54-1.74-1-2.64-1.49a1.53,1.53,0,0,0-.16.11L55,17.32a2.32,2.32,0,0,1-4-1.4l-.47-5a.59.59,0,0,0,0-.19c-1-.21-2-.37-3-.49,0,.06-.08.1-.11.16L45.3,15a2.32,2.32,0,0,1-4.22,0l-2.14-4.53c0-.06-.08-.1-.11-.16-1,.14-2,.33-3,.56a1.06,1.06,0,0,0,0,.19l-.36,5a2.32,2.32,0,0,1-3.95,1.49L27.92,14a1.53,1.53,0,0,0-.16-.11c-.89.47-1.76,1-2.61,1.55,0,.06,0,.12,0,.19l1.38,4.82a2.33,2.33,0,0,1-3.21,2.75l-4.55-2.09c-.07,0-.13,0-.19-.06-.68.76-1.32,1.53-1.93,2.34,0,.06,0,.13.09.18l2.94,4.07a2.32,2.32,0,0,1-2.07,3.68l-5-.41a1.34,1.34,0,0,0-.2,0c-.37.94-.71,1.89-1,2.86.05,0,.08.1.14.14l4.16,2.81A2.33,2.33,0,0,1,15,40.94L10.2,42.26c-.07,0-.11.06-.17.08,0,.39,0,.77,0,1.16,0,.63,0,1.25.06,1.88a1.22,1.22,0,0,0,.17.07l4.87,1.23a2.32,2.32,0,0,1,.78,4.14l-4.1,2.91-.14.14c.32,1,.67,1.91,1.07,2.83a1.27,1.27,0,0,0,.2,0l5-.51a2.32,2.32,0,0,1,2.15,3.63L17.19,64a.89.89,0,0,0-.08.17c.63.8,1.29,1.57,2,2.3a1.21,1.21,0,0,0,.18-.05l4.51-2.19a2.33,2.33,0,0,1,3.27,2.68l-1.27,4.85a1.37,1.37,0,0,0,0,.19c.85.54,1.74,1,2.64,1.49a1.53,1.53,0,0,0,.16-.11l3.49-3.61a2.32,2.32,0,0,1,4,1.41l.47,5a.59.59,0,0,0,0,.19c1,.21,2,.37,3,.49,0-.06.08-.1.11-.16L41.7,72a2.32,2.32,0,0,1,4.22,0l2.14,4.53c0,.06.08.1.11.16,1-.14,2-.33,3-.56a.59.59,0,0,0,.05-.19l.36-5a2.32,2.32,0,0,1,3.95-1.49L59.08,73a1.53,1.53,0,0,0,.16.11c.89-.47,1.76-1,2.61-1.55,0-.06,0-.12,0-.19l-1.38-4.82a2.33,2.33,0,0,1,3.21-2.75l4.55,2.1a1.05,1.05,0,0,1,.19,0c.68-.76,1.32-1.53,1.93-2.34a1,1,0,0,0-.09-.18L67.3,59.32a2.32,2.32,0,0,1,2.07-3.68l5,.41a1.34,1.34,0,0,0,.2,0c.37-.94.71-1.89,1-2.86C75.52,53.14,75.49,53.08,75.43,53ZM36.71,22.51a21.8,21.8,0,0,1,6.79-1.09A22.06,22.06,0,0,1,65.07,38.88a2.42,2.42,0,0,1-2.34,3H47.09a4.55,4.55,0,0,1-3.94-2.27L35.32,26A2.42,2.42,0,0,1,36.71,22.51ZM32.56,59.43a2.42,2.42,0,0,1-3.72.58A22.06,22.06,0,0,1,29,26.91a2.42,2.42,0,0,1,3.71.58L40.52,41.1a4.54,4.54,0,0,1,0,4.55Zm32.6-11.74A22.07,22.07,0,0,1,43.5,65.58a21.68,21.68,0,0,1-6.92-1.13,2.43,2.43,0,0,1-1.38-3.51l7.95-13.77a4.53,4.53,0,0,1,3.94-2.27H62.78A2.39,2.39,0,0,1,65.16,47.69Z"/></g></g></svg>