<svg xmlns="http://www.w3.org/2000/svg" viewBox="0 0 87 87"><defs><style>.cls-1{fill:#1a1a1b;}.cls-2{fill:#242425;}.cls-3{fill:#565657;}.cls-4{fill:#eb4d3c;}.cls-5{fill:#fff;}.cls-6{fill:#5c5c5d;}</style></defs><title>guide</title><g id="圖層_2" data-name="圖層 2"><g id="Layer_1" data-name="Layer 1"><rect class="cls-1" width="87" height="87" rx="19.97"/><circle class="cls-2" cx="43.5" cy="43.5" r="15.5"/><rect class="cls-3" x="42" y="28" width="3" height="31"/><rect class="cls-3" x="42" y="28" width="3" height="31" transform="translate(87) rotate(90)"/><path class="cls-4" d="M75.21,17.21l-5.42-5.42a.67.67,0,0,1,.28-1.11l7-2.09A1.09,1.09,0,0,1,78.41,10l-2.09,7A.67.67,0,0,1,75.21,17.21Z"/><path class="cls-5" d="M25.73,30.83H24.2l-2.05-7.75h1.68l1.22,5.62h0l1.45-5.62h1.37l1.45,5.62h0l1.23-5.62h1.68l-2.06,7.75H28.72l-1.47-5.29H27.2Z"/><path class="cls-5" d="M55.39,30.83V23.08h1.36l3.62,5.05h0V23.08H62v7.75H60.62L57,25.76h0v5.07Z"/><path class="cls-5" d="M25.25,61.62c.08.64.74,1.06,1.6,1.06s1.46-.41,1.46-1-.37-.78-1.31-1l-1-.22c-1.43-.31-2.13-1-2.13-2.17,0-1.43,1.24-2.37,3-2.37s2.94.93,3,2.33H28.27c-.05-.66-.63-1.05-1.44-1.05s-1.34.38-1.34,1,.38.75,1.27,1l.94.2c1.55.34,2.23,1,2.23,2.18C29.93,63,28.71,64,26.79,64s-3.05-.89-3.1-2.35Z"/><path class="cls-5" d="M62.11,63.83H57V56.08h5.13v1.34H58.6v1.87h3.31v1.25H58.6v2h3.51Z"/><rect class="cls-6" x="43" y="5" width="1" height="7"/><rect class="cls-6" x="43" y="75" width="1" height="7"/><rect class="cls-6" x="78" y="40" width="1" height="7" transform="translate(122 -35) rotate(90)"/><rect class="cls-6" x="8" y="40" width="1" height="7" transform="translate(52 35) rotate(90)"/><rect class="cls-6" x="43" y="5" width="1" height="7"/><rect class="cls-6" x="43" y="75" width="1" height="7"/><rect class="cls-6" x="78" y="40" width="1" height="7" transform="translate(122 -35) rotate(90)"/><rect class="cls-6" x="8" y="40" width="1" height="7" transform="translate(52 35) rotate(90)"/><rect class="cls-6" x="47.57" y="5.3" width="1" height="7" transform="translate(1.56 -6.2) rotate(7.5)"/><rect class="cls-6" x="38.43" y="74.7" width="1" height="7" transform="translate(10.55 -4.41) rotate(7.5)"/><rect class="cls-6" x="77.7" y="44.57" width="1" height="7" transform="translate(136.07 -23.19) rotate(97.5)"/><rect class="cls-6" x="8.3" y="35.43" width="1" height="7" transform="translate(48.55 35.29) rotate(97.5)"/><rect class="cls-5" x="52.06" y="6.19" width="1" height="7" transform="translate(4.3 -13.27) rotate(15)"/><rect class="cls-5" x="33.94" y="73.81" width="1" height="7" transform="matrix(0.97, 0.26, -0.26, 0.97, 21.18, -6.28)"/><rect class="cls-5" x="76.81" y="49.06" width="1" height="7" transform="translate(148.08 -8.51) rotate(105)"/><rect class="cls-5" x="9.19" y="30.94" width="1" height="7" transform="matrix(-0.26, 0.97, -0.97, -0.26, 45.47, 33.99)"/><rect class="cls-6" x="56.39" y="7.66" width="1" height="7" transform="translate(8.6 -20.92) rotate(22.5)"/><rect class="cls-6" x="29.61" y="72.34" width="1" height="7" transform="translate(31.31 -5.75) rotate(22.5)"/><rect class="cls-6" x="75.34" y="53.39" width="1" height="7" transform="translate(157.42 8.61) rotate(112.5)"/><rect class="cls-6" x="10.66" y="26.61" width="1" height="7" transform="matrix(-0.38, 0.92, -0.92, -0.38, 43.25, 31.31)"/><rect class="cls-6" x="60.5" y="9.69" width="1" height="7" transform="matrix(0.87, 0.5, -0.5, 0.87, 14.77, -28.73)"/><rect class="cls-6" x="25.5" y="70.31" width="1" height="7" transform="matrix(0.87, 0.5, -0.5, 0.87, 40.39, -3.11)"/><rect class="cls-6" x="73.31" y="57.5" width="1" height="7" transform="translate(163.54 27.58) rotate(120)"/><rect class="cls-6" x="12.69" y="22.5" width="1" height="7" transform="translate(42.3 27.58) rotate(120)"/><rect class="cls-6" x="64.31" y="12.23" width="1" height="7" transform="translate(22.97 -36.2) rotate(37.5)"/><rect class="cls-6" x="21.69" y="67.77" width="1" height="7" transform="translate(47.98 1.22) rotate(37.5)"/><rect class="cls-6" x="70.77" y="61.31" width="1" height="7" transform="translate(166.07 47.72) rotate(127.5)"/><rect class="cls-6" x="15.23" y="18.69" width="1" height="7" transform="translate(42.92 23.22) rotate(127.5)"/><rect class="cls-5" x="67.75" y="15.25" width="1" height="7" transform="translate(33.25 -42.77) rotate(45)"/><rect class="cls-5" x="18.25" y="64.75" width="1" height="7" transform="translate(53.75 6.73) rotate(45)"/><rect class="cls-5" x="67.75" y="64.75" width="1" height="7" transform="translate(164.77 68.25) rotate(135)"/><rect class="cls-5" x="18.25" y="15.25" width="1" height="7" transform="translate(45.27 18.75) rotate(135)"/><rect class="cls-6" x="70.77" y="18.69" width="1" height="7" transform="translate(45.49 -47.86) rotate(52.5)"/><rect class="cls-6" x="15.23" y="61.31" width="1" height="7" transform="translate(57.57 12.87) rotate(52.5)"/><rect class="cls-6" x="64.31" y="67.77" width="1" height="7" transform="translate(159.61 88.35) rotate(142.5)"/><rect class="cls-6" x="21.69" y="12.23" width="1" height="7" transform="translate(49.38 14.7) rotate(142.5)"/><rect class="cls-6" x="73.31" y="22.5" width="1" height="7" transform="translate(59.42 -50.92) rotate(60)"/><rect class="cls-6" x="12.69" y="57.5" width="1" height="7" transform="translate(59.42 19.08) rotate(60)"/><rect class="cls-6" x="60.5" y="70.31" width="1" height="7" transform="translate(150.73 107.23) rotate(150)"/><rect class="cls-6" x="25.5" y="9.69" width="1" height="7" transform="translate(55.11 11.61) rotate(150)"/><rect class="cls-6" x="75.34" y="26.61" width="1" height="7" transform="translate(74.63 -51.48) rotate(67.5)"/><rect class="cls-6" x="10.66" y="53.39" width="1" height="7" transform="translate(59.45 24.8) rotate(67.5)"/><rect class="cls-6" x="56.39" y="72.34" width="1" height="7" transform="translate(138.48 124.12) rotate(157.5)"/><rect class="cls-6" x="29.61" y="7.66" width="1" height="7" transform="translate(62.19 9.96) rotate(157.5)"/><rect class="cls-5" x="76.81" y="30.94" width="1" height="7" transform="translate(90.57 -49.15) rotate(75)"/><rect class="cls-5" x="9.19" y="49.06" width="1" height="7" transform="translate(57.95 29.59) rotate(75)"/><rect class="cls-5" x="52.06" y="73.81" width="1" height="7" transform="matrix(-0.97, 0.26, -0.26, -0.97, 123.34, 138.37)"/><rect class="cls-5" x="33.94" y="6.19" width="1" height="7" transform="translate(70.22 10.14) rotate(165)"/><rect class="cls-6" x="77.7" y="35.43" width="1" height="7" transform="translate(106.59 -43.68) rotate(82.5)"/><rect class="cls-6" x="8.3" y="44.57" width="1" height="7" transform="translate(55.31 33.07) rotate(82.5)"/><rect class="cls-6" x="47.57" y="74.7" width="1" height="7" transform="translate(105.94 149.45) rotate(172.5)"/><rect class="cls-6" x="38.43" y="5.3" width="1" height="7" transform="translate(78.68 12.44) rotate(172.5)"/></g></g></svg>