<svg xmlns="http://www.w3.org/2000/svg" viewBox="0 0 87 87"><defs><style>.cls-1{isolation:isolate;}.cls-2{fill:#acde87;}.cls-3{fill:#e2e1da;}.cls-4{fill:#f6cdd6;}.cls-14,.cls-5{fill:#e3e1db;}.cls-6{fill:#f9d858;}.cls-7{fill:#f2ad42;}.cls-8{fill:#f2f0ea;}.cls-14,.cls-9{mix-blend-mode:multiply;}.cls-10{fill:#fff;}.cls-11{fill:#3377d5;}.cls-12{fill:#cc3631;}.cls-13{fill:#5092dd;}.cls-15{fill:#3477d5;}</style></defs><title>map</title><g class="cls-1"><g id="圖層_2" data-name="圖層 2"><g id="Layer_1" data-name="Layer 1"><rect class="cls-2" width="87" height="87" rx="19.97"/><path class="cls-3" d="M1.68,12,11,18.52V2.16A20.23,20.23,0,0,0,1.3,13C1.43,12.63,1.54,12.31,1.68,12Z"/><path class="cls-4" d="M11,44.16,0,36.46V67A20,20,0,0,0,11,84.84Z"/><path class="cls-5" d="M32,58.86V87H67a20.17,20.17,0,0,0,4.42-.51Z"/><path class="cls-6" d="M1.3,13A19.88,19.88,0,0,0,0,20V35.24L72.72,86.16A20.09,20.09,0,0,0,86.23,72.42Z"/><path class="cls-7" d="M0,36.46l71.45,50c.43-.1.85-.21,1.27-.33L0,35.24Z"/><path class="cls-7" d="M1.3,13,86.23,72.42c.1-.34.19-.68.27-1L1.68,12C1.54,12.31,1.43,12.63,1.3,13Z"/><path class="cls-8" d="M87,47V29h-.5A28.5,28.5,0,0,1,58,.5c0-.17,0-.33,0-.5H40c0,.17,0,.33,0,.5A46.5,46.5,0,0,0,86.5,47Z"/><g class="cls-9"><path class="cls-5" d="M87,48V47h-.5A46.5,46.5,0,0,1,40,.5c0-.17,0-.33,0-.5H39c0,.17,0,.33,0,.5A47.56,47.56,0,0,0,86.5,48Z"/><path class="cls-5" d="M86.5,29H87V28h-.5A27.54,27.54,0,0,1,59,.5c0-.17,0-.33,0-.5H58c0,.17,0,.33,0,.5A28.5,28.5,0,0,0,86.5,29Z"/></g><path class="cls-10" d="M12,85.32A19.86,19.86,0,0,0,20,87H31V0H20a19.86,19.86,0,0,0-8,1.68Z"/><path class="cls-10" d="M65.5,82A17,17,0,0,1,51.36,55.59,12.48,12.48,0,0,0,65.5,55a12.48,12.48,0,0,0,14.14.6A17,17,0,0,1,65.5,82Z"/><path class="cls-11" d="M65.5,55.61A12.8,12.8,0,0,0,73,58a13,13,0,0,0,6.48-1.73A16.31,16.31,0,0,1,82,65a16.5,16.5,0,0,1-33,0,16.31,16.31,0,0,1,2.52-8.73A13,13,0,0,0,58,58a12.8,12.8,0,0,0,7.5-2.39m0-1.25a12,12,0,0,1-14.27.54,17.5,17.5,0,1,0,28.54,0,12,12,0,0,1-14.27-.55Z"/><path class="cls-12" d="M80.35,63a14.66,14.66,0,0,0-1.47-4.75A14.4,14.4,0,0,1,73,59.5a14.56,14.56,0,0,1-7.5-2.1,14.47,14.47,0,0,1-13.39.85A15,15,0,0,0,50.65,63Z"/><path class="cls-11" d="M50.56,64c0,.33-.06.67-.06,1a15,15,0,0,0,30,0c0-.33,0-.67-.06-1Z"/><path class="cls-10" d="M57.87,66c1.76,0,2.9.94,2.9,2.3a3.51,3.51,0,0,1-1.39,2.38l-1.85,1.71v0h3.34V74H55V72.66l3-2.78c.64-.62.88-1,.88-1.48a1,1,0,0,0-1.07-.89,1.08,1.08,0,0,0-1.14,1.1v0H54.85v0C54.85,67.08,56.06,66,57.87,66Z"/><path class="cls-10" d="M62,71.87a2,2,0,0,1,1.9-2v0a1.83,1.83,0,0,1-1.59-1.77c0-1.19,1.23-2,3-2s3,.86,3,2.06a1.84,1.84,0,0,1-1.58,1.76v0a2,2,0,0,1,1.9,2c0,1.36-1.34,2.29-3.32,2.29S62,73.24,62,71.87Zm4.56-.14a1.26,1.26,0,1,0-1.25,1.08A1.13,1.13,0,0,0,66.51,71.73Zm-.19-3.39a1.07,1.07,0,1,0-1.06,1A1,1,0,0,0,66.32,68.34Z"/><path class="cls-10" d="M69.65,70.09c0-2.55,1.27-4.07,3.29-4.07s3.27,1.51,3.27,4.06S75,74.17,72.94,74.17,69.65,72.62,69.65,70.09Zm4.56,0c0-1.68-.51-2.53-1.27-2.53s-1.29.85-1.29,2.52.51,2.55,1.29,2.55S74.21,71.76,74.21,70.09Z"/><path class="cls-13" d="M21.5,36A15.44,15.44,0,0,1,27,37V0H20a20,20,0,0,0-4,.4V37A15.44,15.44,0,0,1,21.5,36Z"/><path class="cls-14" d="M11,84.84c.33.16.66.33,1,.48V1.68c-.34.15-.67.32-1,.48Z"/><rect class="cls-14" x="31" width="1" height="87"/><circle class="cls-15" cx="21.5" cy="51.5" r="15.5"/><path class="cls-10" d="M20.8,42,15,58.25a.71.71,0,0,0,1.15.76l5.37-5,5.37,5A.71.71,0,0,0,28,58.25L22.2,42A.75.75,0,0,0,20.8,42Z"/></g></g></g></svg>