<svg xmlns="http://www.w3.org/2000/svg" xmlns:xlink="http://www.w3.org/1999/xlink" viewBox="0 0 87 87"><defs><style>.cls-1{fill:#fff;}.cls-2{fill:#e5e5e5;}.cls-3{fill:url(#linear-gradient);}</style><linearGradient id="linear-gradient" x1="40.49" y1="68.63" x2="40.49" y2="26.11" gradientUnits="userSpaceOnUse"><stop offset="0" stop-color="#7568ee"/><stop offset="0.4" stop-color="#5da1f0"/><stop offset="0.9" stop-color="#c46786"/><stop offset="1" stop-color="#eb6771"/></linearGradient></defs><title>music</title><g id="圖層_2" data-name="圖層 2"><g id="Layer_1" data-name="Layer 1"><rect class="cls-1" x="0.5" y="0.5" width="86" height="86" rx="19.47"/><path class="cls-2" d="M67,1A19,19,0,0,1,86,20V67A19,19,0,0,1,67,86H20A19,19,0,0,1,1,67V20A19,19,0,0,1,20,1H67m0-1H20A20,20,0,0,0,0,20V67A20,20,0,0,0,20,87H67A20,20,0,0,0,87,67V20A20,20,0,0,0,67,0Z"/><path class="cls-3" d="M32.66,18.23a3.17,3.17,0,0,0-2.58,3.11V54a3.24,3.24,0,0,1-2.47,3.13c-1.6.4-2.17.4-4.85,1A7.26,7.26,0,0,0,17.08,64a6.76,6.76,0,0,0,6.67,7.83C31.84,71.8,34,65.51,34,62.56V33.06a1.3,1.3,0,0,1,1-1.28l23.9-4.72a.89.89,0,0,1,1.07.87V48.18a3,3,0,0,1-2.12,3.12c-1.6.4-2.3.4-5,1a7.24,7.24,0,0,0-5.67,5.82,6.75,6.75,0,0,0,6.67,7.81C62,65.94,64,59.65,64,56.7V14.36A1.64,1.64,0,0,0,62,12.75Z"/></g></g></svg>