<svg xmlns="http://www.w3.org/2000/svg" viewBox="0 0 87 87"><defs><style>.cls-1{isolation:isolate;}.cls-2{fill:#fff;}.cls-3{fill:#e5e5e5;}.cls-4{fill:#eba04c;}.cls-10,.cls-11,.cls-4,.cls-5,.cls-6,.cls-7,.cls-8,.cls-9{mix-blend-mode:multiply;}.cls-5{fill:#7cb5e0;}.cls-6{fill:#cada5f;}.cls-7{fill:#c48fbb;}.cls-8{fill:#f9e552;}.cls-9{fill:#958ec0;}.cls-10{fill:#7fc08b;}.cls-11{fill:#e2726b;}</style></defs><title>photo</title><g class="cls-1"><g id="圖層_2" data-name="圖層 2"><g id="Layer_1" data-name="Layer 1"><rect class="cls-2" x="0.5" y="0.5" width="86" height="86" rx="19.47"/><path class="cls-3" d="M67,1A19,19,0,0,1,86,20V67A19,19,0,0,1,67,86H20A19,19,0,0,1,1,67V20A19,19,0,0,1,20,1H67m0-1H20A20,20,0,0,0,0,20V67A20,20,0,0,0,20,87H67A20,20,0,0,0,87,67V20A20,20,0,0,0,67,0Z"/><rect class="cls-4" x="31.5" y="5" width="24" height="36" rx="12"/><rect class="cls-5" x="31.5" y="46" width="24" height="36" rx="12"/><path class="cls-6" d="M46,43.5h0a12,12,0,0,1,12-12H70a12,12,0,0,1,12,12h0a12,12,0,0,1-12,12H58A12,12,0,0,1,46,43.5Z"/><path class="cls-7" d="M5,43.5H5a12,12,0,0,1,12-12H29a12,12,0,0,1,12,12h0a12,12,0,0,1-12,12H17A12,12,0,0,1,5,43.5Z"/><path class="cls-8" d="M45.27,41.73h0a12,12,0,0,1,0-17l8.48-8.48a12,12,0,0,1,17,0h0a12,12,0,0,1,0,17l-8.48,8.48A12,12,0,0,1,45.27,41.73Z"/><path class="cls-9" d="M16.28,70.72h0a12,12,0,0,1,0-17l8.48-8.48a12,12,0,0,1,17,0h0a12,12,0,0,1,0,17l-8.48,8.48A12,12,0,0,1,16.28,70.72Z"/><path class="cls-10" d="M45.27,45.27h0a12,12,0,0,1,17,0l8.48,8.48a12,12,0,0,1,0,17h0a12,12,0,0,1-17,0l-8.48-8.48A12,12,0,0,1,45.27,45.27Z"/><path class="cls-11" d="M16.28,16.28h0a12,12,0,0,1,17,0l8.48,8.48a12,12,0,0,1,0,17h0a12,12,0,0,1-17,0l-8.48-8.48A12,12,0,0,1,16.28,16.28Z"/></g></g></g></svg>