<svg xmlns="http://www.w3.org/2000/svg" viewBox="0 0 87 87"><defs><style>.cls-1{fill:#fff;}.cls-2{fill:#e5e5e5;}.cls-3{fill:#f09a37;}.cls-4{fill:#52abf2;}.cls-5{fill:#84d855;}.cls-6{fill:#bbbbbe;}</style></defs><title>reminder</title><g id="圖層_2" data-name="圖層 2"><g id="Layer_1" data-name="Layer 1"><rect class="cls-1" x="0.5" y="0.5" width="86" height="86" rx="19.47"/><path class="cls-2" d="M67,1A19,19,0,0,1,86,20V67A19,19,0,0,1,67,86H20A19,19,0,0,1,1,67V20A19,19,0,0,1,20,1H67m0-1H20A20,20,0,0,0,0,20V67A20,20,0,0,0,20,87H67A20,20,0,0,0,87,67V20A20,20,0,0,0,67,0Z"/><path class="cls-3" d="M14.5,15.5a6,6,0,1,1-6,6,6,6,0,0,1,6-6m0-1.5A7.5,7.5,0,1,0,22,21.5,7.5,7.5,0,0,0,14.5,14Z"/><circle class="cls-3" cx="14.5" cy="21.5" r="4.5"/><path class="cls-4" d="M14.5,37.5a6,6,0,1,1-6,6,6,6,0,0,1,6-6m0-1.5A7.5,7.5,0,1,0,22,43.5,7.5,7.5,0,0,0,14.5,36Z"/><circle class="cls-4" cx="14.5" cy="43.5" r="4.5"/><path class="cls-5" d="M14.5,59.5a6,6,0,1,1-6,6,6,6,0,0,1,6-6m0-1.5A7.5,7.5,0,1,0,22,65.5,7.5,7.5,0,0,0,14.5,58Z"/><circle class="cls-5" cx="14.5" cy="65.5" r="4.5"/><path class="cls-6" d="M84.84,76H29v1H84.29C84.48,76.67,84.66,76.34,84.84,76Z"/><path class="cls-6" d="M84.29,10H29v1H84.84C84.66,10.66,84.48,10.33,84.29,10Z"/><rect class="cls-6" x="29" y="54" width="58" height="1"/><rect class="cls-6" x="29" y="32" width="58" height="1"/></g></g></svg>