<svg xmlns="http://www.w3.org/2000/svg" xmlns:xlink="http://www.w3.org/1999/xlink" viewBox="0 0 87 87"><defs><style>.cls-1{fill:#fff;}.cls-2{fill:#e5e5e5;}.cls-3{fill:url(#linear-gradient);}.cls-4{fill:#d2f0fd;}.cls-5{fill:#eb4e3d;}</style><linearGradient id="linear-gradient" x1="43.5" y1="81" x2="43.5" y2="6" gradientUnits="userSpaceOnUse"><stop offset="0" stop-color="#4579ea"/><stop offset="1" stop-color="#5fc7f6"/></linearGradient></defs><title>safari</title><g id="圖層_2" data-name="圖層 2"><g id="Layer_1" data-name="Layer 1"><rect class="cls-1" x="0.5" y="0.5" width="86" height="86" rx="19.47"/><path class="cls-2" d="M67,1A19,19,0,0,1,86,20V67A19,19,0,0,1,67,86H20A19,19,0,0,1,1,67V20A19,19,0,0,1,20,1H67m0-1H20A20,20,0,0,0,0,20V67A20,20,0,0,0,20,87H67A20,20,0,0,0,87,67V20A20,20,0,0,0,67,0Z"/><circle class="cls-3" cx="43.5" cy="43.5" r="37.5"/><rect class="cls-4" x="43" y="9" width="1" height="6"/><rect class="cls-4" x="43" y="72" width="1" height="6"/><rect class="cls-4" x="74.5" y="40.5" width="1" height="6" transform="translate(118.5 -31.5) rotate(90)"/><rect class="cls-4" x="11.5" y="40.5" width="1" height="6" transform="translate(55.5 31.5) rotate(90)"/><rect class="cls-4" x="74.02" y="45.97" width="1" height="6" transform="translate(135.69 -15.92) rotate(100)"/><rect class="cls-4" x="11.98" y="35.03" width="1" height="6" transform="translate(52.1 32.34) rotate(100)"/><rect class="cls-4" x="72.6" y="51.27" width="1" height="6" transform="translate(149.1 4.15) rotate(110)"/><rect class="cls-4" x="13.4" y="29.73" width="1" height="6" transform="translate(49.41 30.86) rotate(110)"/><rect class="cls-4" x="70.28" y="56.25" width="1" height="6" transform="translate(157.48 27.58) rotate(120)"/><rect class="cls-4" x="15.72" y="24.75" width="1" height="6" transform="translate(48.36 27.58) rotate(120)"/><rect class="cls-4" x="67.13" y="60.75" width="1" height="6" transform="translate(159.94 52.91) rotate(130)"/><rect class="cls-4" x="18.87" y="20.25" width="1" height="6" transform="translate(49.63 23.36) rotate(130)"/><rect class="cls-4" x="63.25" y="64.63" width="1" height="6" transform="translate(156.05 78.46) rotate(140)"/><rect class="cls-4" x="22.75" y="16.37" width="1" height="6" transform="translate(53.52 19.26) rotate(140)"/><rect class="cls-4" x="58.75" y="67.78" width="1" height="6" transform="translate(145.95 102.46) rotate(150)"/><rect class="cls-4" x="27.25" y="13.22" width="1" height="6" transform="translate(59.89 16.39) rotate(150)"/><rect class="cls-4" x="53.77" y="70.1" width="1" height="6" transform="translate(130.28 123.23) rotate(160)"/><rect class="cls-4" x="32.23" y="10.9" width="1" height="6" transform="translate(68.23 15.77) rotate(160)"/><rect class="cls-4" x="48.47" y="71.52" width="1" height="6" transform="translate(110.14 139.4) rotate(170)"/><rect class="cls-4" x="37.53" y="9.48" width="1" height="6" transform="translate(77.65 18.16) rotate(170)"/><rect class="cls-4" x="45.88" y="9.13" width="1" height="3" transform="translate(91.65 25.26) rotate(-175)"/><rect class="cls-4" x="40.12" y="74.87" width="1" height="3" transform="translate(74.44 156) rotate(-175)"/><rect class="cls-4" x="51.54" y="10.12" width="1" height="3" transform="translate(99.3 36.32) rotate(-165)"/><rect class="cls-4" x="34.46" y="73.88" width="1" height="3" transform="translate(49.22 157.23) rotate(-165)"/><rect class="cls-4" x="56.95" y="12.09" width="1" height="3" transform="translate(103.77 50.19) rotate(-155)"/><rect class="cls-4" x="29.05" y="71.91" width="1" height="3" transform="translate(25.32 152.43) rotate(-155)"/><rect class="cls-4" x="61.93" y="14.97" width="1" height="3" transform="translate(104.12 65.77) rotate(-145)"/><rect class="cls-4" x="24.07" y="69.03" width="1" height="3" transform="matrix(-0.82, -0.57, 0.57, -0.82, 4.25, 142.4)"/><rect class="cls-4" x="66.33" y="18.67" width="1" height="3" transform="translate(99.83 81.68) rotate(-135)"/><rect class="cls-4" x="19.67" y="65.33" width="1" height="3" transform="translate(-12.83 128.35) rotate(-135)"/><rect class="cls-4" x="70.03" y="23.07" width="1" height="3" transform="translate(90.86 96.44) rotate(-125)"/><rect class="cls-4" x="15.97" y="60.93" width="1" height="3" transform="translate(-25.22 111.73) rotate(-125)"/><rect class="cls-4" x="72.91" y="28.05" width="1" height="3" transform="translate(77.65 108.57) rotate(-115)"/><rect class="cls-4" x="13.09" y="55.95" width="1" height="3" transform="translate(-32.73 94.04) rotate(-115)"/><rect class="cls-4" x="74.88" y="33.46" width="1" height="3" transform="translate(61.12 116.81) rotate(-105)"/><rect class="cls-4" x="11.12" y="50.54" width="1" height="3" transform="translate(-35.64 76.74) rotate(-105)"/><rect class="cls-4" x="75.87" y="39.12" width="1" height="3" transform="translate(42.56 120.25) rotate(-95)"/><rect class="cls-4" x="10.13" y="44.88" width="1" height="3" transform="translate(-34.65 61.01) rotate(-95)"/><rect class="cls-4" x="75.87" y="44.88" width="1" height="3" transform="translate(23.52 118.42) rotate(-85)"/><rect class="cls-4" x="10.13" y="39.12" width="1" height="3" transform="matrix(0.09, -1, 1, 0.09, -30.77, 47.67)"/><rect class="cls-4" x="74.88" y="50.54" width="1" height="3" transform="translate(5.6 111.38) rotate(-75)"/><rect class="cls-4" x="11.12" y="33.46" width="1" height="3" transform="matrix(0.26, -0.97, 0.97, 0.26, -25.15, 37.14)"/><rect class="cls-4" x="72.91" y="55.95" width="1" height="3" transform="translate(-9.68 99.7) rotate(-65)"/><rect class="cls-4" x="13.09" y="28.05" width="1" height="3" transform="translate(-18.94 29.38) rotate(-65)"/><rect class="cls-4" x="70.03" y="60.93" width="1" height="3" transform="translate(-21.06 84.4) rotate(-55)"/><rect class="cls-4" x="15.97" y="23.07" width="1" height="3" transform="translate(-13.11 23.97) rotate(-55)"/><rect class="cls-4" x="66.33" y="65.33" width="1" height="3" transform="translate(-27.68 66.83) rotate(-45)"/><rect class="cls-4" x="19.67" y="18.67" width="1" height="3" transform="translate(-8.35 20.17) rotate(-45)"/><rect class="cls-4" x="61.93" y="69.03" width="1" height="3" transform="translate(-29.17 48.57) rotate(-35)"/><rect class="cls-4" x="24.07" y="14.97" width="1" height="3" transform="translate(-5 17.07) rotate(-35)"/><rect class="cls-4" x="56.95" y="71.91" width="1" height="3" transform="translate(-25.64 31.16) rotate(-25)"/><rect class="cls-4" x="29.05" y="12.09" width="1" height="3" transform="translate(-2.98 13.76) rotate(-25)"/><rect class="cls-4" x="51.54" y="73.88" width="1" height="3" transform="translate(-17.73 16.03) rotate(-15)"/><rect class="cls-4" x="34.46" y="10.12" width="1" height="3" transform="translate(-1.82 9.45) rotate(-15)"/><rect class="cls-4" x="45.88" y="74.87" width="1" height="3" transform="translate(-6.48 4.33) rotate(-5)"/><rect class="cls-4" x="40.12" y="9.13" width="1" height="3" transform="translate(-0.77 3.58) rotate(-5)"/><rect class="cls-4" x="37.53" y="71.52" width="1" height="6" transform="translate(62.54 154.52) rotate(-170)"/><rect class="cls-4" x="48.47" y="9.48" width="1" height="6" transform="translate(95.03 33.27) rotate(-170)"/><rect class="cls-4" x="32.23" y="70.1" width="1" height="6" transform="translate(38.48 152.99) rotate(-160)"/><rect class="cls-4" x="53.77" y="10.9" width="1" height="6" transform="translate(100.52 45.52) rotate(-160)"/><rect class="cls-4" x="27.25" y="67.78" width="1" height="6" transform="translate(16.4 145.95) rotate(-150)"/><rect class="cls-4" x="58.75" y="13.22" width="1" height="6" transform="translate(102.45 59.89) rotate(-150)"/><rect class="cls-4" x="22.75" y="64.63" width="1" height="6" transform="translate(-2.41 134.38) rotate(-140)"/><rect class="cls-4" x="63.25" y="16.37" width="1" height="6" transform="translate(100.13 75.19) rotate(-140)"/><rect class="cls-4" x="18.87" y="60.75" width="1" height="6" transform="translate(-17.02 119.56) rotate(-130)"/><rect class="cls-4" x="67.13" y="20.25" width="1" height="6" transform="translate(93.29 90.01) rotate(-130)"/><rect class="cls-4" x="15.72" y="56.25" width="1" height="6" transform="matrix(-0.5, -0.87, 0.87, -0.5, -26.98, 102.92)"/><rect class="cls-4" x="70.28" y="24.75" width="1" height="6" transform="matrix(-0.5, -0.87, 0.87, -0.5, 82.14, 102.92)"/><rect class="cls-4" x="13.4" y="51.27" width="1" height="6" transform="translate(-32.35 85.9) rotate(-110)"/><rect class="cls-4" x="72.6" y="29.73" width="1" height="6" transform="translate(67.36 112.61) rotate(-110)"/><rect class="cls-4" x="11.98" y="45.97" width="1" height="6" transform="translate(-33.58 69.77) rotate(-100)"/><rect class="cls-4" x="74.02" y="35.03" width="1" height="6" transform="translate(50.01 118.02) rotate(-100)"/><polygon class="cls-1" points="46.68 46.68 15.74 66.83 40.32 40.32 46.68 46.68"/><polygon class="cls-5" points="46.68 46.68 69.63 21.25 40.32 40.32 46.68 46.68"/></g></g></svg>