<svg xmlns="http://www.w3.org/2000/svg" viewBox="0 0 87 87"><defs><style>.cls-1{fill:#eb5828;}.cls-2{fill:#fff;}</style></defs><title>sos</title><g id="圖層_2" data-name="圖層 2"><g id="Layer_1" data-name="Layer 1"><rect class="cls-1" width="87" height="87" rx="19.97"/><path class="cls-2" d="M43.67,27.86c-6,0-10.05,4.4-10.05,15.29S37.67,58.4,43.67,58.4s10-4.36,10-15.25S49.62,27.86,43.67,27.86Zm0,25.66c-2.92,0-4.06-3.43-4.06-10.37S40.75,32.9,43.67,32.9s4,3.31,4,10.25S46.58,53.52,43.67,53.52ZM61.71,36c0-1.49.7-3,2.29-3,1.85,0,3.42.81,3.42,4.34h5V36.11a8,8,0,0,0-8.21-8c-4.87,0-8,3.63-8,8.33,0,10,11.53,7.6,11.53,14.09a3,3,0,0,1-2.92,3.12,3.8,3.8,0,0,1-4.08-3.95H55.6c0,4.52,3.45,8.66,9.16,8.66a8.08,8.08,0,0,0,8.47-8.16C73.23,40.85,61.71,42.41,61.71,36ZM19.47,36c0-1.49.71-3,2.3-3,1.85,0,3.42.81,3.42,4.34h5V36.11a8,8,0,0,0-8.21-8c-4.87,0-8,3.63-8,8.33,0,10,11.53,7.6,11.53,14.09a3,3,0,0,1-2.93,3.12,3.79,3.79,0,0,1-4.07-3.95H13.37c0,4.52,3.45,8.66,9.15,8.66,4.95,0,8.48-3.53,8.48-8.16C31,40.85,19.47,42.41,19.47,36Z"/></g></g></svg>