<svg xmlns="http://www.w3.org/2000/svg" viewBox="0 0 87 87"><defs><style>.cls-1{fill:#a4aab3;}.cls-2{fill:#fff;}</style></defs><title>voice</title><g id="圖層_2" data-name="圖層 2"><g id="Layer_1" data-name="Layer 1"><rect class="cls-1" width="87" height="87" rx="19.97"/><path class="cls-2" d="M26,64h0a2,2,0,0,1-2-2V26a2,2,0,0,1,2-2h0a2,2,0,0,1,2,2V62A2,2,0,0,1,26,64Z"/><path class="cls-2" d="M62,61h0a2,2,0,0,1-2-2V29a2,2,0,0,1,2-2h0a2,2,0,0,1,2,2V59A2,2,0,0,1,62,61Z"/><path class="cls-2" d="M44,68h0a2,2,0,0,1-2-2V22a2,2,0,0,1,2-2h0a2,2,0,0,1,2,2V66A2,2,0,0,1,44,68Z"/><path class="cls-2" d="M17,50h0a2,2,0,0,1-2-2V40a2,2,0,0,1,2-2h0a2,2,0,0,1,2,2v8A2,2,0,0,1,17,50Z"/><path class="cls-2" d="M71,50h0a2,2,0,0,1-2-2V40a2,2,0,0,1,2-2h0a2,2,0,0,1,2,2v8A2,2,0,0,1,71,50Z"/><path class="cls-2" d="M35,53h0a2,2,0,0,1-2-2V37a2,2,0,0,1,2-2h0a2,2,0,0,1,2,2V51A2,2,0,0,1,35,53Z"/><path class="cls-2" d="M53,55h0a2,2,0,0,1-2-2V35a2,2,0,0,1,2-2h0a2,2,0,0,1,2,2V53A2,2,0,0,1,53,55Z"/><path class="cls-2" d="M8,47H8a2,2,0,0,1-2-2V43a2,2,0,0,1,2-2H8a2,2,0,0,1,2,2v2A2,2,0,0,1,8,47Z"/><path class="cls-2" d="M80,47h0a2,2,0,0,1-2-2V43a2,2,0,0,1,2-2h0a2,2,0,0,1,2,2v2A2,2,0,0,1,80,47Z"/></g></g></svg>