<svg xmlns="http://www.w3.org/2000/svg" viewBox="0 0 87 87"><defs><style>.cls-1{fill:#1e1e1f;}.cls-2{fill:#d9d6cd;}.cls-3{fill:#5597c4;}.cls-4{fill:#f3b33e;}.cls-5{fill:#6ebb50;}.cls-6{fill:#e27565;}</style></defs><title>wallet</title><g id="圖層_2" data-name="圖層 2"><g id="Layer_1" data-name="Layer 1"><rect class="cls-1" width="87" height="87" rx="19.97"/><rect class="cls-2" x="10" y="19" width="67" height="49" rx="6"/><path class="cls-3" d="M70,22H17a4,4,0,0,0-4,4v5a4,4,0,0,1,4-4H70a4,4,0,0,1,4,4V26A4,4,0,0,0,70,22Z"/><path class="cls-4" d="M70,27H17a4,4,0,0,0-4,4v5a4,4,0,0,1,4-4H70a4,4,0,0,1,4,4V31A4,4,0,0,0,70,27Z"/><path class="cls-5" d="M70,32H17a4,4,0,0,0-4,4v5a4,4,0,0,1,4-4H70a4,4,0,0,1,4,4V36A4,4,0,0,0,70,32Z"/><path class="cls-6" d="M31.18,42a4.7,4.7,0,0,1,4.38,3,8.5,8.5,0,0,0,15.88,0,4.7,4.7,0,0,1,4.38-3H74V41a4,4,0,0,0-4-4H17a4,4,0,0,0-4,4v1Z"/><path class="cls-2" d="M55.82,42a4.7,4.7,0,0,0-4.38,3,8.5,8.5,0,0,1-15.88,0,4.7,4.7,0,0,0-4.38-3H10V62a6,6,0,0,0,6,6H71a6,6,0,0,0,6-6V42Z"/></g></g></svg>