<svg xmlns="http://www.w3.org/2000/svg" xmlns:xlink="http://www.w3.org/1999/xlink" viewBox="0 0 87 87"><defs><style>.cls-1{fill:url(#linear-gradient);}.cls-2{fill:#fff;}</style><linearGradient id="linear-gradient" x1="43.5" y1="87" x2="43.5" gradientUnits="userSpaceOnUse"><stop offset="0" stop-color="#386ee9"/><stop offset="1" stop-color="#5ec5f7"/></linearGradient></defs><title>app-store</title><g id="圖層_2" data-name="圖層 2"><g id="Layer_1" data-name="Layer 1"><rect class="cls-1" width="87" height="87" rx="19.97"/><path class="cls-2" d="M23.73,59.09c-1.35,0-2.47.32-2.91,1.08l-2.38,4.12a3.83,3.83,0,0,0,1.4,5.23,3.78,3.78,0,0,0,1.91.51,3.85,3.85,0,0,0,3.32-1.91l3.43-5.91C29.35,60.74,25.84,59.09,23.73,59.09Z"/><path class="cls-2" d="M46.34,50H35.54L51.81,21.73a3.83,3.83,0,0,0-6.63-3.82l-1.69,2.94-1.72-2.94a3.83,3.83,0,0,0-6.63,3.82l4,6.76L26.71,50H16.93a4,4,0,0,0,0,8h34.2c.95,0,.95-1.81.95-2.29A5.78,5.78,0,0,0,46.34,50Z"/><path class="cls-2" d="M70.25,50h-10L49.39,31.12c-.73-1.28-3,3.11-3,6.63,0,2.12,0,3.17.49,4.25L61.92,68.12A3.83,3.83,0,0,0,65.24,70a3.77,3.77,0,0,0,1.9-.51,3.84,3.84,0,0,0,1.41-5.23L64.71,58h5.54a4,4,0,0,0,0-8Z"/></g></g></svg>