<svg xmlns="http://www.w3.org/2000/svg" viewBox="0 0 87 87"><defs><style>.cls-1{fill:#fff;}.cls-2{fill:#e4e4e4;}.cls-3{fill:#eb4e3d;}</style></defs><title>calendar</title><g id="圖層_2" data-name="圖層 2"><g id="Layer_1" data-name="Layer 1"><rect class="cls-1" x="0.5" y="0.5" width="86" height="86" rx="19.47"/><path class="cls-2" d="M67,1A19,19,0,0,1,86,20V67A19,19,0,0,1,67,86H20A19,19,0,0,1,1,67V20A19,19,0,0,1,20,1H67m0-1H20A20,20,0,0,0,0,20V67A20,20,0,0,0,20,87H67A20,20,0,0,0,87,67V20A20,20,0,0,0,67,0Z"/><path class="cls-3" d="M67,0H20A20,20,0,0,0,0,20v0H87v0A20,20,0,0,0,67,0Z"/><rect x="33" y="30" width="3" height="3"/><rect x="42" y="30" width="3" height="3"/><rect x="51" y="30" width="3" height="3"/><rect x="60" y="30" width="3" height="3"/><rect x="69" y="30" width="3" height="3"/><rect x="33" y="44" width="3" height="3"/><rect x="42" y="44" width="3" height="3"/><rect x="51" y="44" width="3" height="3"/><rect x="60" y="44" width="3" height="3"/><rect x="69" y="44" width="3" height="3"/><rect x="33" y="57" width="3" height="3"/><rect x="42" y="57" width="3" height="3"/><rect x="60" y="57" width="3" height="3"/><rect x="69" y="57" width="3" height="3"/><rect x="33" y="71" width="3" height="3"/><rect x="24" y="44" width="3" height="3"/><rect x="24" y="57" width="3" height="3"/><rect x="24" y="71" width="3" height="3"/><rect x="15" y="44" width="3" height="3"/><rect x="15" y="57" width="3" height="3"/><rect x="15" y="71" width="3" height="3"/><rect x="42" y="71" width="3" height="3"/><rect x="51" y="71" width="3" height="3"/><circle class="cls-3" cx="52.5" cy="58.5" r="5.5"/></g></g></svg>