<svg xmlns="http://www.w3.org/2000/svg" viewBox="0 0 87 87"><defs><style>.cls-1{fill:#d7d6cd;}.cls-2{fill:#a7a29b;}.cls-3{fill:#77d672;}.cls-4{fill:#f09a37;}.cls-5{fill:#77c5f5;}.cls-6{fill:#c3c2bb;}</style></defs><title>contact</title><g id="圖層_2" data-name="圖層 2"><g id="Layer_1" data-name="Layer 1"><rect class="cls-1" width="87" height="87" rx="19.97"/><path class="cls-2" d="M38,16A27.5,27.5,0,1,0,65.5,43.5,27.5,27.5,0,0,0,38,16Zm0,2.5A25,25,0,0,1,59.14,56.82c-3.22-.84-6.21-1.1-6.67-2.71a3.81,3.81,0,0,1-.13-1.2c3.51-.27,6.64-1,6.64-2.53,0-2.27-2.09-2.88-2.09-13.42,0-5.8-3.33-9.18-7.2-9.18a5.93,5.93,0,0,0-4.25,1.48,2.82,2.82,0,0,0-1.33-.41c-1.55,0-5.08.53-5.08,8.91,0,2.73.19,3.75.19,5.11,0,2.43-2.13,5.51-2.13,6.8,0,2.83,3.33,3.16,6.85,3.25a4.93,4.93,0,0,1-.07,1.29c-1.08,3.65-14.56-.61-14.76,12.65a24.28,24.28,0,0,1-2.6-1.17V64.26c.41-6.51,6-9,10.16-10.19-1.51-.41-2.65-.92-3-2a4.53,4.53,0,0,1,0-2.23,7.2,7.2,0,0,0,1.66-5c1.08-.33.94-1.56,1-2.23s.75-1.17.75-2.95c0-1.25-.87-1.29-.87-1.29a24.72,24.72,0,0,0,.58-4.62,5.57,5.57,0,0,0-1.3-4.59,7.33,7.33,0,0,0-3.9-2.35,8.06,8.06,0,0,0-4-.85,5.37,5.37,0,0,0-5,3c-1.84,0-2.28,2.08-2.28,4.89a21.9,21.9,0,0,0,.4,4.53s-.87,0-.87,1.36.58,2,.65,2.86.33,2.13,1,2.06c.15,2.38.54,3.93,2.1,5.19a3.43,3.43,0,0,1-.12,2.23c-.68,2.12-4.17,2.15-7.62,3.07A25,25,0,0,1,38,18.5Z"/><path class="cls-3" d="M76,66V84.84A20,20,0,0,0,87,67V66Z"/><rect class="cls-4" x="76" y="44" width="11" height="22"/><rect class="cls-5" x="76" y="22" width="11" height="22"/><path class="cls-6" d="M76,2.16V22H87V20A20,20,0,0,0,76,2.16Z"/></g></g></svg>