<svg xmlns="http://www.w3.org/2000/svg" viewBox="0 0 87 87"><defs><style>.cls-1{fill:#8e8e92;}.cls-2{fill:#fff;}</style></defs><title>control-center</title><g id="圖層_2" data-name="圖層 2"><g id="Layer_1" data-name="Layer 1"><rect class="cls-1" width="87" height="87" rx="19.97"/><path class="cls-2" d="M52.84,41H34a14.5,14.5,0,0,1,0-29H52.84a14.5,14.5,0,0,1,0,29ZM34,15.05A11.45,11.45,0,1,0,34,38H52.84a11.45,11.45,0,1,0,0-22.9Z"/><path class="cls-2" d="M33.75,34.5h0a8.27,8.27,0,0,1-8.25-8.25h0A8.27,8.27,0,0,1,33.75,18h0A8.27,8.27,0,0,1,42,26.25h0A8.27,8.27,0,0,1,33.75,34.5Z"/><path class="cls-2" d="M52.84,46H34a14.5,14.5,0,0,0,0,29H52.84a14.5,14.5,0,0,0,0-29Zm-.28,24.38a10,10,0,1,1,10-10A10,10,0,0,1,52.56,70.38Z"/></g></g></svg>