<svg xmlns="http://www.w3.org/2000/svg" viewBox="0 0 87 87"><defs><style>.cls-1{fill:#77d672;}.cls-2{fill:#fff;}.cls-3{fill:#b5eab6;}</style></defs><title>face-id</title><g id="圖層_2" data-name="圖層 2"><g id="Layer_1" data-name="Layer 1"><rect class="cls-1" width="87" height="87" rx="19.97"/><path class="cls-2" d="M27.5,39h0A3.5,3.5,0,0,1,24,35.5v-5A3.51,3.51,0,0,1,27.5,27h0A3.51,3.51,0,0,1,31,30.5v5A3.5,3.5,0,0,1,27.5,39Z"/><path class="cls-2" d="M59.5,39h0A3.5,3.5,0,0,1,56,35.5v-5A3.51,3.51,0,0,1,59.5,27h0A3.51,3.51,0,0,1,63,30.5v5A3.5,3.5,0,0,1,59.5,39Z"/><path class="cls-2" d="M41.5,50h-2a2.5,2.5,0,0,1,0-5h2s.5-.22.5-.5v-14a2.5,2.5,0,0,1,5,0v14A5.67,5.67,0,0,1,41.5,50Z"/><path class="cls-3" d="M11.5,28.5A2.5,2.5,0,0,1,9,26V19.51A10.52,10.52,0,0,1,19.51,9h7a2.5,2.5,0,0,1,0,5h-7A5.51,5.51,0,0,0,14,19.51V26A2.5,2.5,0,0,1,11.5,28.5Z"/><path class="cls-3" d="M67.49,78h-7a2.5,2.5,0,0,1,0-5h7A5.51,5.51,0,0,0,73,67.49V61a2.5,2.5,0,0,1,5,0v6.49A10.52,10.52,0,0,1,67.49,78Z"/><path class="cls-3" d="M75.5,28.5A2.5,2.5,0,0,1,73,26V19.5A5.51,5.51,0,0,0,67.5,14h-7a2.5,2.5,0,0,1,0-5h7A10.51,10.51,0,0,1,78,19.5V26A2.5,2.5,0,0,1,75.5,28.5Z"/><path class="cls-3" d="M26.5,78h-7A10.52,10.52,0,0,1,9,67.49V61a2.5,2.5,0,0,1,5,0v6.49A5.51,5.51,0,0,0,19.51,73h7a2.5,2.5,0,0,1,0,5Z"/><path class="cls-2" d="M43.5,64.41a17.42,17.42,0,0,1-12.27-4.64,2.5,2.5,0,1,1,3.54-3.54c4.24,4.25,13.22,4.25,17.46,0a2.5,2.5,0,0,1,3.54,3.54A17.42,17.42,0,0,1,43.5,64.41Z"/></g></g></svg>