<svg xmlns="http://www.w3.org/2000/svg" xmlns:xlink="http://www.w3.org/1999/xlink" viewBox="0 0 87 87"><defs><style>.cls-1{fill:#fff;}.cls-2{fill:#ccc;}.cls-3{fill:url(#linear-gradient);}</style><linearGradient id="linear-gradient" x1="53.53" y1="50.09" x2="53.53" y2="13.8" gradientUnits="userSpaceOnUse"><stop offset="0" stop-color="#eb4a37"/><stop offset="1" stop-color="#ed6ba9"/></linearGradient></defs><title>health</title><g id="圖層_2" data-name="圖層 2"><g id="Layer_1" data-name="Layer 1"><rect class="cls-1" x="0.5" y="0.5" width="86" height="86" rx="19.47"/><path class="cls-2" d="M67,1A19,19,0,0,1,86,20V67A19,19,0,0,1,67,86H20A19,19,0,0,1,1,67V20A19,19,0,0,1,20,1H67m0-1H20A20,20,0,0,0,0,20V67A20,20,0,0,0,20,87H67A20,20,0,0,0,87,67V20A20,20,0,0,0,67,0Z"/><path class="cls-3" d="M63.13,13.8a13.06,13.06,0,0,0-9.6,4.61,13.1,13.1,0,0,0-9.61-4.61A10.87,10.87,0,0,0,33.05,24.67c0,15.08,20.48,25.42,20.48,25.42S74,39.75,74,24.67A10.87,10.87,0,0,0,63.13,13.8Z"/></g></g></svg>