<svg xmlns="http://www.w3.org/2000/svg" viewBox="0 0 87 87"><defs><style>.cls-1{fill:#76d672;}.cls-2{fill:#fff;}</style></defs><title>hotspot</title><g id="圖層_2" data-name="圖層 2"><g id="Layer_1" data-name="Layer 1"><rect class="cls-1" width="87" height="87" rx="19.97"/><path class="cls-2" d="M46.69,24h-15a13.49,13.49,0,0,0-7.17,24.92c0-.14,0-.28,0-.42A17.46,17.46,0,0,1,25,44.26,9.49,9.49,0,0,1,31.69,28h15a9.5,9.5,0,0,1,0,19H37.76a4.68,4.68,0,0,0-.26,1.5,4.87,4.87,0,0,0,.7,2.5h8.49a13.5,13.5,0,0,0,0-27Z"/><path class="cls-2" d="M64.67,37.08c0,.14,0,.28,0,.42a18,18,0,0,1-.53,4.24A9.49,9.49,0,0,1,57.5,58h-15a9.5,9.5,0,0,1,0-19h8.93A4.68,4.68,0,0,0,51,35H42.5a13.5,13.5,0,0,0,0,27h15a13.49,13.49,0,0,0,7.17-24.92Z"/></g></g></svg>