<svg xmlns="http://www.w3.org/2000/svg" xmlns:xlink="http://www.w3.org/1999/xlink" viewBox="0 0 87 87"><defs><style>.cls-1{fill:url(#linear-gradient);}.cls-2{fill:#fff;}</style><linearGradient id="linear-gradient" x1="43.5" y1="87" x2="43.5" gradientUnits="userSpaceOnUse"><stop offset="0" stop-color="#5ec5f6"/><stop offset="1" stop-color="#386fe9"/></linearGradient></defs><title>mail</title><g id="圖層_2" data-name="圖層 2"><g id="Layer_1" data-name="Layer 1"><rect class="cls-1" width="87" height="87" rx="19.97"/><path class="cls-2" d="M73.58,60.75A4,4,0,0,0,74,59V28a4,4,0,0,0-.42-1.75L56.33,43.5Z"/><path class="cls-2" d="M13.42,26.25A4,4,0,0,0,13,28V59a4,4,0,0,0,.42,1.75L30.67,43.5Z"/><path class="cls-2" d="M70,24H17a3.92,3.92,0,0,0-1.83.47L38.05,47.34a7.71,7.71,0,0,0,10.9,0L71.83,24.47A3.92,3.92,0,0,0,70,24Z"/><path class="cls-2" d="M36.28,49.11l-3.84-3.84L15.17,62.53A3.92,3.92,0,0,0,17,63H70a3.92,3.92,0,0,0,1.83-.47L54.56,45.27l-3.84,3.84a10.21,10.21,0,0,1-14.44,0Z"/></g></g></svg>