<svg xmlns="http://www.w3.org/2000/svg" viewBox="0 0 87 87"><defs><style>.cls-1{fill:#eb4d3d;}.cls-2{fill:#fff;}.cls-3{fill:none;stroke:#fff;stroke-miterlimit:10;stroke-width:3px;}</style></defs><title>mic</title><g id="圖層_2" data-name="圖層 2"><g id="Layer_1" data-name="Layer 1"><rect class="cls-1" width="87" height="87" rx="19.97"/><path class="cls-2" d="M44,54h0a9,9,0,0,1-9-9V26a9,9,0,0,1,9-9h0a9,9,0,0,1,9,9V45A9,9,0,0,1,44,54Z"/><rect class="cls-2" x="29" y="36" width="3" height="9"/><rect class="cls-2" x="56" y="36" width="3" height="9"/><rect class="cls-2" x="43" y="59" width="3" height="9"/><rect class="cls-2" x="42.5" y="58.5" width="3" height="22" transform="translate(113.5 25.5) rotate(90)"/><path class="cls-3" d="M57.5,45a13.5,13.5,0,0,1-27,0"/></g></g></svg>