<svg xmlns="http://www.w3.org/2000/svg" xmlns:xlink="http://www.w3.org/1999/xlink" viewBox="0 0 87 87"><defs><style>.cls-1{isolation:isolate;}.cls-2{fill:#fff;}.cls-3{fill:#e5e5e5;}.cls-4,.cls-5,.cls-6,.cls-7{mix-blend-mode:multiply;}.cls-4{fill:url(#linear-gradient);}.cls-5{fill:#bbbbbf;}.cls-6{fill:#a0a0a0;}.cls-7{fill:#bebec2;}</style><linearGradient id="linear-gradient" x1="43.5" y1="22" x2="43.5" gradientUnits="userSpaceOnUse"><stop offset="0" stop-color="#f7cf46"/><stop offset="1" stop-color="#fae074"/></linearGradient></defs><title>notes</title><g class="cls-1"><g id="圖層_2" data-name="圖層 2"><g id="Layer_1" data-name="Layer 1"><rect class="cls-2" x="0.5" y="0.5" width="86" height="86" rx="19.47"/><path class="cls-3" d="M67,1A19,19,0,0,1,86,20V67A19,19,0,0,1,67,86H20A19,19,0,0,1,1,67V20A19,19,0,0,1,20,1H67m0-1H20A20,20,0,0,0,0,20V67A20,20,0,0,0,20,87H67A20,20,0,0,0,87,67V20A20,20,0,0,0,67,0Z"/><path class="cls-4" d="M67,0H20A20,20,0,0,0,0,20v2H87V20A20,20,0,0,0,67,0Z"/><rect class="cls-5" y="43" width="87" height="1"/><rect class="cls-5" y="65" width="87" height="1"/><rect class="cls-6" y="22" width="87" height="1"/><rect class="cls-7" y="26" width="2" height="2"/><rect class="cls-7" x="5" y="26" width="2" height="2"/><rect class="cls-7" x="10" y="26" width="2" height="2"/><rect class="cls-7" x="15" y="26" width="2" height="2"/><rect class="cls-7" x="20" y="26" width="2" height="2"/><rect class="cls-7" x="25" y="26" width="2" height="2"/><rect class="cls-7" x="30" y="26" width="2" height="2"/><rect class="cls-7" x="35" y="26" width="2" height="2"/><rect class="cls-7" x="40" y="26" width="2" height="2"/><rect class="cls-7" x="45" y="26" width="2" height="2"/><rect class="cls-7" x="50" y="26" width="2" height="2"/><rect class="cls-7" x="55" y="26" width="2" height="2"/><rect class="cls-7" x="60" y="26" width="2" height="2"/><rect class="cls-7" x="65" y="26" width="2" height="2"/><rect class="cls-7" x="70" y="26" width="2" height="2"/><rect class="cls-7" x="75" y="26" width="2" height="2"/><rect class="cls-7" x="80" y="26" width="2" height="2"/><rect class="cls-7" x="85" y="26" width="2" height="2"/></g></g></g></svg>