<svg xmlns="http://www.w3.org/2000/svg" viewBox="0 0 87 87"><defs><style>.cls-1{fill:#eb4d3d;}.cls-2{fill:#fff;}</style></defs><title>notification</title><g id="圖層_2" data-name="圖層 2"><g id="Layer_1" data-name="Layer 1"><rect class="cls-1" width="87" height="87" rx="19.97"/><path class="cls-2" d="M63,40.37V58a8,8,0,0,1-8,8H29a8,8,0,0,1-8-8V32a8,8,0,0,1,8-8H46.63A16.41,16.41,0,0,1,47,21H29A11,11,0,0,0,18,32V58A11,11,0,0,0,29,69H55A11,11,0,0,0,66,58V40A16.41,16.41,0,0,1,63,40.37Z"/><path class="cls-2" d="M62.5,13.51a11,11,0,1,0,11,11,11,11,0,0,0-11-11Z"/></g></g></svg>