<svg xmlns="http://www.w3.org/2000/svg" viewBox="0 0 87 87"><defs><style>.cls-1{fill:#76d672;}.cls-2{fill:#fff;}</style></defs><title>phone</title><g id="圖層_2" data-name="圖層 2"><g id="Layer_1" data-name="Layer 1"><rect class="cls-1" width="87" height="87" rx="19.97"/><path class="cls-2" d="M69,59a52.11,52.11,0,0,0-11-6.26c-2.25-1-5.39,2.34-7,3.26a3.66,3.66,0,0,1-2.74-.1,74.87,74.87,0,0,1-9.21-7.85,74.24,74.24,0,0,1-7.63-8.68A2.85,2.85,0,0,1,31,36.58c.92-1.61,3.58-4.66,3.58-7.1,0-2.06-3.83-7.89-6.85-12-2.39-3.26-4.86-2.32-8.27.87-3,2.78-3.58,4.68-3.52,6.39s.41,4,3.74,10.75A80.72,80.72,0,0,0,33.13,54,80.81,80.81,0,0,0,51.61,67.43C58.32,70.75,61.29,71,63,71s3.12-1.12,6-4S72.64,61.73,69,59Z"/></g></g></svg>