<svg xmlns="http://www.w3.org/2000/svg" viewBox="0 0 87 87"><defs><style>.cls-1{fill:#8e8e93;}.cls-2{fill:#fff;}</style></defs><title>privacy</title><g id="圖層_2" data-name="圖層 2"><g id="Layer_1" data-name="Layer 1"><rect class="cls-1" width="87" height="87" rx="19.97"/><path class="cls-2" d="M67.18,40.84c-1.79,0-4.14,1.32-5.83,3.67-1,1.45-2.63,5.57-4.79,5.57-1.64,0-2-2.09-2-4.16V18.71a3.12,3.12,0,0,0-2.5-3.13,3,3,0,0,0-3.51,3v25a.86.86,0,0,1-.86.86h-1.3a.86.86,0,0,1-.85-.86V15.08A3.11,3.11,0,0,0,43.06,12a3,3,0,0,0-3.52,3V43.68a.85.85,0,0,1-.81.85l-1.29.07a.84.84,0,0,1-.9-.84v-26A3.13,3.13,0,0,0,34,14.66a3,3,0,0,0-3.51,3V45a.86.86,0,0,1-.77.85L28.44,46a.85.85,0,0,1-.93-.85V26.88a2.26,2.26,0,1,0-4.51,0V52a2.18,2.18,0,0,0,.07.52c.22,9,1.14,13.68,4.44,17.9,4,5.17,6.77,5.93,13.54,5.93S51.1,74.5,55.33,69.7,61.16,59.17,63,53.82s2.64-5.86,3.57-7c.66-.85,3.48-3.67,3.39-4.42S69,40.84,67.18,40.84Z"/></g></g></svg>