<svg xmlns="http://www.w3.org/2000/svg" viewBox="0 0 87 87"><defs><style>.cls-1{fill:#3478f6;}.cls-2{fill:#fff;}</style></defs><title>vpn</title><g id="圖層_2" data-name="圖層 2"><g id="Layer_1" data-name="Layer 1"><rect class="cls-1" width="87" height="87" rx="19.97"/><path class="cls-2" d="M17.38,56.25,7.25,28.77h3.6L19,52.08h.12l8.17-23.31H30.9L20.77,56.25Z"/><path class="cls-2" d="M43.54,28.77a8.43,8.43,0,0,1,8.79,8.82,8.48,8.48,0,0,1-8.83,8.86H36.59v9.8H33.16V28.77ZM36.59,43.4h6c3.92,0,6.17-2.15,6.17-5.81s-2.23-5.77-6.17-5.77h-6Z"/><path class="cls-2" d="M55,56.25V28.77h3.34l15,21.58h.17V28.77h3.39V56.25H73.58l-15-21.5h-.17v21.5Z"/></g></g></svg>