<svg xmlns="http://www.w3.org/2000/svg" viewBox="0 0 87 87"><defs><style>.cls-1{fill:#59a7d7;}.cls-2{fill:none;stroke:#fff;stroke-miterlimit:10;stroke-width:3px;}</style></defs><title>wallpaper</title><g id="圖層_2" data-name="圖層 2"><g id="Layer_1" data-name="Layer 1"><rect class="cls-1" width="87" height="87" rx="19.97"/><path class="cls-2" d="M56.12,34.5H63a9,9,0,0,1,9,9h0a9,9,0,0,1-9,9H56.12a6.64,6.64,0,0,1-6.62-6.62V41.12A6.64,6.64,0,0,1,56.12,34.5Z"/><path class="cls-2" d="M30.88,34.5H24a9,9,0,0,0-9,9h0a9,9,0,0,0,9,9h6.88a6.64,6.64,0,0,0,6.62-6.62V41.12A6.64,6.64,0,0,0,30.88,34.5Z"/><path class="cls-2" d="M52.5,56.12V63a9,9,0,0,1-9,9h0a9,9,0,0,1-9-9V56.12a6.64,6.64,0,0,1,6.62-6.62h4.76A6.64,6.64,0,0,1,52.5,56.12Z"/><path class="cls-2" d="M52.5,30.88V24a9,9,0,0,0-9-9h0a9,9,0,0,0-9,9v6.88a6.64,6.64,0,0,0,6.62,6.62h4.76A6.64,6.64,0,0,0,52.5,30.88Z"/><path class="cls-2" d="M58.79,46.06l4.86,4.86a9,9,0,0,1,0,12.73h0a9,9,0,0,1-12.73,0l-4.86-4.86a6.63,6.63,0,0,1,0-9.36l3.37-3.37A6.63,6.63,0,0,1,58.79,46.06Z"/><path class="cls-2" d="M40.94,28.21l-4.86-4.86a9,9,0,0,0-12.73,0h0a9,9,0,0,0,0,12.73l4.86,4.86a6.63,6.63,0,0,0,9.36,0l3.37-3.37A6.63,6.63,0,0,0,40.94,28.21Z"/><path class="cls-2" d="M40.94,58.79l-4.86,4.86a9,9,0,0,1-12.73,0h0a9,9,0,0,1,0-12.73l4.86-4.86a6.63,6.63,0,0,1,9.36,0l3.37,3.37A6.63,6.63,0,0,1,40.94,58.79Z"/><path class="cls-2" d="M58.79,40.94l4.86-4.86a9,9,0,0,0,0-12.73h0a9,9,0,0,0-12.73,0l-4.86,4.86a6.63,6.63,0,0,0,0,9.36l3.37,3.37A6.63,6.63,0,0,0,58.79,40.94Z"/></g></g></svg>