<svg xmlns="http://www.w3.org/2000/svg" viewBox="0 0 87 87"><defs><style>.cls-1{fill:#3478f6;}.cls-2{fill:#fff;}</style></defs><title>wifi</title><g id="圖層_2" data-name="圖層 2"><g id="Layer_1" data-name="Layer 1"><rect class="cls-1" width="87" height="87" rx="19.97"/><path class="cls-2" d="M43.5,39a26.93,26.93,0,0,0-17.42,6.37.94.94,0,0,0,0,1.37l3.59,3.69a.93.93,0,0,0,1.28.06,19.92,19.92,0,0,1,25.2,0,.93.93,0,0,0,1.28-.06L61,46.74a.94.94,0,0,0,0-1.37A26.93,26.93,0,0,0,43.5,39Zm0,13.67a12.47,12.47,0,0,0-7.7,2.66.92.92,0,0,0-.1,1.36L43,64.19a.73.73,0,0,0,1,0l7.28-7.5a.92.92,0,0,0-.1-1.36A12.47,12.47,0,0,0,43.5,52.67ZM70.15,35.88a39.89,39.89,0,0,0-53.3,0,.94.94,0,0,0,0,1.36l3.56,3.67a.94.94,0,0,0,1.3,0,32.92,32.92,0,0,1,43.66,0,.94.94,0,0,0,1.3,0l3.56-3.67A.94.94,0,0,0,70.15,35.88Z"/></g></g></svg>