<svg xmlns="http://www.w3.org/2000/svg" width="543.848" height="143.75" viewBox="0 0 543.848 143.75"><path d="M145.02-6.934q.879-8.4,2.148-19.434t2.734-23.1q1.465-12.061,2.979-24.268t2.979-22.852q-5.176,9.961-10.449,20.02L135.4-57.471q-4.736,9.033-8.691,16.357t-6.4,11.816q-2.246,3.027-4.492,5.762a49.627,49.627,0,0,1-4.443,4.785,23.364,23.364,0,0,1-4.346,3.271,8.475,8.475,0,0,1-4.2,1.221,7.241,7.241,0,0,1-4.346-1.172,4.064,4.064,0,0,1-1.611-3.516,8.408,8.408,0,0,1,.049-.928,3.57,3.57,0,0,1,.244-.928q-.586-13.867-.879-27.979T96-76.562v-6.445q0-3.223.1-6.348-3.906,8.789-8.5,18.262t-9.57,18.7q-4.98,9.229-10.254,17.773T57.227-19.092a100.874,100.874,0,0,1-10.4,11.914A32.906,32.906,0,0,1,37.012-.293,52.245,52.245,0,0,1,29.883,2.1a23.159,23.159,0,0,1-5.371.732,8.074,8.074,0,0,1-5.225-1.416,4.343,4.343,0,0,1-1.709-3.467,8.372,8.372,0,0,1,2.051-5.078,13.255,13.255,0,0,1,5.762-4.1q4.492-1.758,9.814-7.764a129.768,129.768,0,0,0,10.986-14.6q5.664-8.594,11.426-19.141T68.8-74.121Q74.219-84.961,79-95.361t8.5-18.8q3.711-8.4,6.1-14.014t2.979-6.982a9.122,9.122,0,0,1,3.809-4.395,10.083,10.083,0,0,1,4.98-1.367q3.516,0,4.883,1.9t1.367,6.787q.781,6.152,1.318,11.572t.928,11.133q.391,5.713.537,12.3t.146,15.186q0,6.152-.244,13.574t-.244,16.6Q125.781-73.145,134.814-89.4t15.723-27.246a154.229,154.229,0,0,1,11.279-16.6q4.59-5.615,7.324-5.615h.684a3.559,3.559,0,0,0,.586-.049,3.559,3.559,0,0,1,.586-.049q2.344,0,3.711,2.93a18.124,18.124,0,0,1,1.367,7.617q-.391,4.785-1.172,11.914T173.1-100.83q-1.025,8.545-2.2,18.018t-2.344,18.8q-1.172,9.326-2.2,18.115T164.648-29.98a17,17,0,0,0-.2,2.588v2.686q0,2.539.1,5.127t.1,5.127q0,2.93-.293,5.908a13.8,13.8,0,0,1-1.611,5.371,9.875,9.875,0,0,1-4.15,3.906,16.736,16.736,0,0,1-7.812,1.514,5.051,5.051,0,0,1-4.2-2Q145.02-1.758,145.02-6.934ZM226.66-53.32a18.329,18.329,0,0,0-8.887,2.344,27.56,27.56,0,0,0-7.617,6.152,30.746,30.746,0,0,0-5.273,8.545,24.8,24.8,0,0,0-1.953,9.521,35.1,35.1,0,0,0,.244,4.053,11.532,11.532,0,0,0,1.123,3.857,8,8,0,0,0,2.49,2.93,7.241,7.241,0,0,0,4.346,1.172,9.548,9.548,0,0,0,5.029-1.9,41.925,41.925,0,0,0,5.957-4.883,78.269,78.269,0,0,0,6.006-6.543q2.93-3.564,5.273-6.982a67.256,67.256,0,0,0,3.809-6.152,10.032,10.032,0,0,0,1.465-4,5.115,5.115,0,0,0-1.27-3.369,11.642,11.642,0,0,0-3.125-2.588,15.543,15.543,0,0,0-3.955-1.611A15.06,15.06,0,0,0,226.66-53.32Zm67.676,25.2q-1.758,1.66-4.687,4.59t-6.689,6.348q-3.76,3.418-8.008,6.885A91.714,91.714,0,0,1,266.26-4,58.533,58.533,0,0,1,257.52.635a20.959,20.959,0,0,1-8.105,1.807A11.183,11.183,0,0,1,243.555.977,12.943,12.943,0,0,1,239.5-2.832a16.855,16.855,0,0,1-2.393-5.322,23.957,23.957,0,0,1-.781-6.1,27.952,27.952,0,0,1,.293-4.053,17.218,17.218,0,0,1,.977-3.76q-3.027,4.1-6.885,8.447a67.9,67.9,0,0,1-8.3,7.91A47.108,47.108,0,0,1,213.135.146a22.672,22.672,0,0,1-9.814,2.295,20.673,20.673,0,0,1-5.908-1.025,19.869,19.869,0,0,1-6.4-3.369,19.383,19.383,0,0,1-5.078-6.055,18.545,18.545,0,0,1-2.051-9.082,45.7,45.7,0,0,1,1.221-9.57,68.77,68.77,0,0,1,3.711-11.572A71.166,71.166,0,0,1,195.166-50.1,52.006,52.006,0,0,1,204.3-60.6a44.567,44.567,0,0,1,12.012-7.52A37.887,37.887,0,0,1,231.348-71a23.8,23.8,0,0,1,7.52,1.074,31.294,31.294,0,0,1,5.469,2.344,27.152,27.152,0,0,1,4.492,3.418q1.66-.879,3.418-1.66a28.815,28.815,0,0,1,3.076-1.221,9.022,9.022,0,0,1,2.783-.537,8.859,8.859,0,0,1,6.055,2.051,5.938,5.938,0,0,1,2.344,4.492,4.636,4.636,0,0,1-.1,1.074q-.488,1.855-1.514,4.688t-2.295,6.3q-1.27,3.467-2.588,7.227t-2.393,7.373q-1.074,3.613-1.758,6.787a26.391,26.391,0,0,0-.684,5.42,10.557,10.557,0,0,0,.977,4.834,3.43,3.43,0,0,0,3.32,1.9,8.5,8.5,0,0,0,3.467-.928,32.864,32.864,0,0,0,4.346-2.49q2.344-1.562,4.834-3.564t4.834-4.053q5.469-4.883,11.621-11.133a4.862,4.862,0,0,1,3.027-1.27,3.882,3.882,0,0,1,3.271,1.9,7.293,7.293,0,0,1,1.318,4.248A6.234,6.234,0,0,1,294.336-28.125ZM312.207-54.98a57.272,57.272,0,0,1,10.645,7.129,50.692,50.692,0,0,1,7.959,8.447,37.116,37.116,0,0,1,4.98,9.033,25.649,25.649,0,0,1,1.709,8.984,16.806,16.806,0,0,1-3.174,10.01,27.259,27.259,0,0,1-8.3,7.52A42.026,42.026,0,0,1,314.307.83a55.94,55.94,0,0,1-13.33,1.611,43.025,43.025,0,0,1-9.863-1.123,30.853,30.853,0,0,1-8.74-3.467,23.934,23.934,0,0,1-6.787-6.006,22.257,22.257,0,0,1-4-8.74,5.488,5.488,0,0,1-.2-1.27,6.281,6.281,0,0,1,1.855-4.541,5.629,5.629,0,0,1,4.1-1.9,8.5,8.5,0,0,1,2.393.391,3.22,3.22,0,0,1,2,1.758,13.947,13.947,0,0,0,3.564,4.2,24.674,24.674,0,0,0,5.127,3.174,30.365,30.365,0,0,0,6.006,2.051,27.531,27.531,0,0,0,6.2.732,30.07,30.07,0,0,0,6.006-.586,16.757,16.757,0,0,0,5.078-1.855,10.03,10.03,0,0,0,3.467-3.223,8.6,8.6,0,0,0,1.27-4.785,19.156,19.156,0,0,0-2.246-9.18A32.919,32.919,0,0,0,310.4-39.7a55.186,55.186,0,0,0-8.105-6.641q-4.541-3.076-9.033-5.908a6.61,6.61,0,0,1-1.465-1.709,5.028,5.028,0,0,1-.977-2.881,2.757,2.757,0,0,1,.586-1.855,50.05,50.05,0,0,1,3.613-4.2,38.892,38.892,0,0,1,4.395-3.955,21.926,21.926,0,0,1,5.078-2.93,14.772,14.772,0,0,1,5.664-1.123,13.228,13.228,0,0,1,4,.586,10.746,10.746,0,0,1,3.125,1.514,7.938,7.938,0,0,1,2,2.051,3.9,3.9,0,0,1,.732,2.1,5.491,5.491,0,0,1-.684,2.637,11.254,11.254,0,0,1-1.807,2.441,30.039,30.039,0,0,1-2.539,2.344Q313.574-56.055,312.207-54.98Zm60.742.684q-3.613,7.031-6.836,13.721t-6.055,12.354a52.279,52.279,0,0,0-2.295,5.42,16.11,16.11,0,0,0-1.123,5.42,3.313,3.313,0,0,0,.635,2.148,2.556,2.556,0,0,0,2.1.781,14.906,14.906,0,0,0,5.176-1.221,56.362,56.362,0,0,0,6.738-3.223q3.613-2,7.617-4.59t7.861-5.371q3.857-2.783,7.373-5.566t6.25-5.127a5.251,5.251,0,0,1,2.93-1.074,3.262,3.262,0,0,1,2.734,1.465,6.111,6.111,0,0,1,1.074,3.711,10.967,10.967,0,0,1-1.074,4.59,13.032,13.032,0,0,1-3.906,4.59q-6.348,5.762-12.842,10.938A132.818,132.818,0,0,1,376.416-6.2,72.585,72.585,0,0,1,363.77.1,34.4,34.4,0,0,1,351.66,2.441a18.16,18.16,0,0,1-6.543-1.025,10.828,10.828,0,0,1-4.248-2.832,10.592,10.592,0,0,1-2.295-4.2,18.587,18.587,0,0,1-.684-5.127,33.775,33.775,0,0,1,1.66-10.156,68.469,68.469,0,0,1,3.711-9.473q2.93-6.055,5.811-12.012t5.615-11.426h-4.2q-5.469,0-7.52-1.758a5.183,5.183,0,0,1-2.051-4,6.1,6.1,0,0,1,.635-2.393,8.853,8.853,0,0,1,1.855-2.637,11.338,11.338,0,0,1,2.979-2.1,8.833,8.833,0,0,1,4-.879h10.547L381.543-108.5a12.53,12.53,0,0,1,4.834-5.322,12.137,12.137,0,0,1,6.006-1.611,9.763,9.763,0,0,1,5.371,1.563q2.441,1.562,2.441,5.176a9.358,9.358,0,0,1-.83,3.76q-.83,1.9-2.2,4.443-.879,1.66-2.148,3.955t-2.686,4.883q-1.416,2.588-2.93,5.42t-2.979,5.469q-3.32,6.25-7.031,13.184H411.23a34.8,34.8,0,0,1,4.3.244,10,10,0,0,1,3.369.977,5.46,5.46,0,0,1,2.2,2,6.481,6.481,0,0,1,.781,3.418,7.051,7.051,0,0,1-.342,2.148,4.609,4.609,0,0,1-1.27,1.953,7.25,7.25,0,0,1-2.539,1.465,15.966,15.966,0,0,1-4.15.781Zm62.793-3.32a4.526,4.526,0,0,0-.879-.1h-.879a16.557,16.557,0,0,0-6.934,1.465,23.388,23.388,0,0,0-5.908,3.857,30.52,30.52,0,0,0-4.785,5.42q-2.1,3.027-3.76,6.006a53.685,53.685,0,0,0-2.783,5.713q-1.123,2.734-1.709,4.59,3.418-1.758,7.08-4t6.885-4.3q3.223-2.051,5.615-3.711t3.369-2.246a20.65,20.65,0,0,0,6.055-5.127,7.682,7.682,0,0,0,1.66-4.15,3.077,3.077,0,0,0-.928-2.344A3.952,3.952,0,0,0,435.742-57.617Zm3.516-13.477q8.105,0,12.109,3.906t4,10.84a19.919,19.919,0,0,1-2.148,8.594,29.742,29.742,0,0,1-7.422,9.131,78.749,78.749,0,0,1-14.111,9.473,166.514,166.514,0,0,1-22.119,9.717A6.364,6.364,0,0,0,412.6-14.99a12.437,12.437,0,0,0,6.738,1.611,38.721,38.721,0,0,0,9.619-1.318,78.954,78.954,0,0,0,10.156-3.369q5.029-2.051,9.814-4.443t8.643-4.541q3.857-2.148,6.445-3.711t3.467-1.953a3.921,3.921,0,0,1,1.611-.684,10.071,10.071,0,0,1,1.318-.1,3.368,3.368,0,0,1,1.953.537,5.44,5.44,0,0,1,1.318,1.27,4.286,4.286,0,0,1,.732,1.563,6.344,6.344,0,0,1,.2,1.416,13.576,13.576,0,0,1-.2,2.1,6.25,6.25,0,0,1-1.465,2.783q-.488.488-3.271,2.637T462.5-16.113q-4.395,2.93-10.205,6.2a119.861,119.861,0,0,1-12.3,6.006A97.018,97.018,0,0,1,426.465.635,55.568,55.568,0,0,1,412.6,2.441,23.159,23.159,0,0,1,402.2.2a23.453,23.453,0,0,1-7.715-6.055,26.834,26.834,0,0,1-4.834-8.789,32.824,32.824,0,0,1-1.66-10.449,29.647,29.647,0,0,1,1.66-9.229,48.106,48.106,0,0,1,4.785-10.107,61.959,61.959,0,0,1,7.666-9.912A56.187,56.187,0,0,1,412.3-62.891a52.959,52.959,0,0,1,12.451-5.957A45.872,45.872,0,0,1,439.258-71.094Zm58.984,14.16a87.328,87.328,0,0,1,7.861-4.3q4.053-1.953,7.861-3.369a63.138,63.138,0,0,1,7.275-2.246,26.946,26.946,0,0,1,6.2-.83q4.395,0,6.787,2.1t2.393,7.08q0,1.074-.1,2.295a20,20,0,0,1-.391,2.588,16.071,16.071,0,0,1-2.93,5.957,89.746,89.746,0,0,1-5.713,7.129q-3.271,3.711-7.031,7.471l-6.934,6.934q-3.174,3.174-5.273,5.518t-2.1,3.223a3.931,3.931,0,0,0,.1,1.074q.1.293.879.293,5.273-2.246,11.768-5.42t12.939-6.494q6.445-3.32,12.207-6.494t9.766-5.518a12.9,12.9,0,0,1,1.807-.83,4.977,4.977,0,0,1,1.709-.342,3.975,3.975,0,0,1,2.93,1.172,4.223,4.223,0,0,1,1.172,3.125,9.636,9.636,0,0,1-1.9,5.127,24.031,24.031,0,0,1-6.4,6.006q-3.418,2.148-7.666,4.834t-8.887,5.566Q531.934-12.4,527.2-9.668t-9.131,4.883a71.8,71.8,0,0,1-8.252,3.467A21.181,21.181,0,0,1,503.125,0q-6.738,0-10.107-3.223a10.977,10.977,0,0,1-3.369-8.3,5.206,5.206,0,0,1,.1-1.172,31.382,31.382,0,0,1,2.539-8.3,61.462,61.462,0,0,1,4.2-7.617q2.344-3.613,4.883-6.885t4.639-6.152a53.808,53.808,0,0,0,3.467-5.322,9.32,9.32,0,0,0,1.367-4.492,2.612,2.612,0,0,0-.2-.977.839.839,0,0,0-.879-.488,14.431,14.431,0,0,0-3.857.879,46.2,46.2,0,0,0-5.713,2.344,42.312,42.312,0,0,0-5.762,3.369,12.323,12.323,0,0,0-3.906,4.053q-1.562,2.734-3.613,6.934t-4.248,8.789q-2.2,4.59-4.248,9.082T474.9-9.766a19.065,19.065,0,0,1-3.076,5.078,21.677,21.677,0,0,1-4.15,3.809,20.881,20.881,0,0,1-4.59,2.441,12.335,12.335,0,0,1-4.3.879,5.171,5.171,0,0,1-3.564-1.172,4.864,4.864,0,0,1-1.318-3.809,13.391,13.391,0,0,1,.342-2.686,13.257,13.257,0,0,1,1.416-3.564q1.758-3.32,3.564-7.227t4.15-8.936q2.344-5.029,5.42-11.523t7.275-14.99a10.08,10.08,0,0,1-2.295-2.881,8.818,8.818,0,0,1-.928-4.248,8.034,8.034,0,0,1,.977-4.053,8,8,0,0,1,2.637-2.783,12.509,12.509,0,0,1,3.857-1.611,19.476,19.476,0,0,1,4.639-.537,29.725,29.725,0,0,1,5.078.439,19.59,19.59,0,0,1,4.541,1.318,10.577,10.577,0,0,1,3.271,2.148,4.024,4.024,0,0,1,1.27,2.93,2.251,2.251,0,0,1-.2.781q-.2.488-.439,1.074t-.439,1.074a2.251,2.251,0,0,0-.2.781q0,.2.1.2h.1Z" transform="translate(-17.578 140.918)" fill="#fff"/></svg>