<?xml version="1.0" encoding="utf-8"?>
<!-- Generator: Adobe Illustrator 23.0.4, SVG Export Plug-In . SVG Version: 6.00 Build 0)  -->
<svg version="1.1"
	 id="svg10306" xmlns:cc="http://creativecommons.org/ns#" xmlns:dc="http://purl.org/dc/elements/1.1/" xmlns:rdf="http://www.w3.org/1999/02/22-rdf-syntax-ns#" xmlns:svg="http://www.w3.org/2000/svg"
	 xmlns="http://www.w3.org/2000/svg" xmlns:xlink="http://www.w3.org/1999/xlink" x="0px" y="0px" viewBox="0 0 492.2 159.9"
	 style="enable-background:new 0 0 492.2 159.9;" xml:space="preserve">
<style type="text/css">
	.st0{fill:#FFFFFF;}
	.st1{fill:#F6AC19;}
</style>
<g>
	<polygon class="st0" points="213,157.3 172.7,157.3 197.9,2.8 238.1,2.8 213,157.3 	"/>
	<path class="st0" d="M138.9,2.8L100.5,109L96,86.1l0,0L82.5,16.7c0,0-1.6-13.9-19.1-13.9H0l-0.7,2.6c0,0,19.4,4,42.1,17.7
		l34.9,134.2h41.9l64-154.5H138.9L138.9,2.8z"/>
	<path class="st0" d="M411,102.6l21.1-57.8l11.9,57.8H411L411,102.6z M455.3,157.3h36.9L460,2.8h-32.3c-14.9,0-18.6,11.5-18.6,11.5
		l-60,143H391l8.4-22.9h51.1L455.3,157.3L455.3,157.3z"/>
	<path class="st0" d="M352.3,39.9L358,6.7c0,0-17.7-6.7-36.2-6.7c-20,0-67.4,8.7-67.4,51.1c0,39.9,55.6,40.4,55.6,61.4
		c0,21-49.9,17.2-66.4,4l-6,34.7c0,0,18,8.7,45.4,8.7c27.4,0,68.9-14.2,68.9-52.9c0-40.2-56.1-43.9-56.1-61.4
		C295.9,28.2,335.1,30.4,352.3,39.9L352.3,39.9z"/>
	<path class="st1" d="M96,86.2L82.5,16.7c0,0-1.6-13.9-19.1-13.9H0l-0.7,2.6c0,0,30.5,6.3,59.7,30C86.9,58,96,86.2,96,86.2L96,86.2z
		"/>
</g>
</svg>
